<?xml version="1.0" encoding="utf-8"?>
<!-- Generator: Adobe Illustrator 24.2.0, SVG Export Plug-In . SVG Version: 6.00 Build 0)  -->
<svg version="1.0" id="Layer_1" xmlns="http://www.w3.org/2000/svg" xmlns:xlink="http://www.w3.org/1999/xlink" x="0px" y="0px"
	 viewBox="0 0 300 280" enable-background="new 0 0 300 280" xml:space="preserve">
<g>
	<g>
		
			<linearGradient id="SVGID_1_" gradientUnits="userSpaceOnUse" x1="-488.2581" y1="-319.5868" x2="-488.2581" y2="-252.6732" gradientTransform="matrix(1.1979 0 0 1.1979 733.6234 473.4529)">
			<stop  offset="0" style="stop-color:#009DC4"/>
			<stop  offset="1" style="stop-color:#BBDDEA"/>
		</linearGradient>
		<path fill="url(#SVGID_1_)" d="M49.59,132.52c0,0,1.83,3.07,1.84,3.07l3.22-1.61l0.45-0.22l14.77,32.91l1.42,3.16l3.31-1.09
			l8-2.65l3.5-1.16l-0.93-3.56l-4.25-16.31c1.22-0.91,2.36-1.89,3.41-2.91c-0.23,1.96-0.11,3.93,0.42,5.82
			c1.11,3.95,3.7,7.05,7.29,8.75c3.88,1.83,8.62,1.78,12.99-0.12c2.2-0.96,4.15-2.34,5.8-3.98l0.6,6.5l14-2.21l-0.02-12.59
			l29.26,14.2v-14.04c1.18-0.11,2.38-0.31,3.58-0.61c3.23-0.81,5.98-1.92,8.42-3.41l-1.23,7.54l15.78,2.33l0.87-5.71l4.12,7.59
			l2.51-4.89l0.92,7.97l17.89,2.98l-0.95-6.02c2.45,0.25,5.03-0.1,7.52-1.07c0.6-0.23,1.18-0.5,1.74-0.79l-0.72,6.43l11.91,1.55
			l0.1,4.89l12.41,3.78l16.17-48.99l-16.84-3.92l-1.6,6.62l-1.48-7.3l-19.78-4.15l0.14,11.02l2.98,0.63l-0.22,2
			c-0.03-0.02-0.06-0.03-0.09-0.05c-3.69-1.92-8.27-2.07-12.58-0.39c-1.44,0.57-2.78,1.32-4.01,2.21l-2.97-18.84l-13.16,0.14
			l-0.37,2.17l-13.84,0.14l-1.58,9.73l-1.15-1.41c-3.35-4.1-8.22-6.33-13.6-6.39l11.75-6.45l-8.19-12.18l-14.81,17.26l2.56,3.1
			c-2.32,0.97-4.34,2.3-6.01,3.89l-12.7-11.16l-4.45,8.58l0.17-8.2l-19.86,6.56l0.51,10.69l3.38-0.92l0.5,5.42
			c-3.86-1.7-8.49-1.61-12.8,0.26c-1.27,0.56-2.46,1.26-3.56,2.07c0.75-3.31,0.57-6.56-0.69-9.45c-1.48-3.41-4.09-6.22-7.28-7.97
			c-2.24-1.47-4.91-2.38-7.71-2.66c-6.86-1.14-15.11,0.19-23.23,3.73c-2.99,1.3-5.77,2.79-8.28,4.41l-3.17,2.06l1.92,3.23
			 M131.92,130.25l3.76-3.7c-0.16,1.69-0.08,3.44,0.28,5.23L131.92,130.25z M168.84,127.38l-2.58-2.3l2.76-2.97l0.83-0.89
			L168.84,127.38z"/>
		<path fill="#FFCB05" d="M241.4,111.01l-1.6,6.6l-1.48-7.32l-19.82-4.36l0.15,11.02l2.99,0.66l-0.22,1.99
			c-0.03-0.02-0.06-0.03-0.09-0.05c-3.69-1.96-8.28-2.16-12.61-0.53c-1.44,0.55-2.79,1.29-4.02,2.17l-2.98-18.87h-13.19l-0.37,2.16
			h-13.87l-1.59,9.71l-1.15-1.42c-3.36-4.14-8.23-6.41-13.63-6.53l11.78-6.33l-8.21-12.26l-14.85,17.1l2.57,3.13
			c-2.33,0.95-4.35,2.25-6.02,3.83l-12.73-11.29l-4.46,8.53l0.17-8.19l-19.9,6.35l0.51,10.7l3.39-0.88l0.5,5.42
			c-3.87-1.74-8.51-1.7-12.83,0.13c-1.28,0.55-2.47,1.24-3.57,2.03c0.75-3.3,0.57-6.56-0.69-9.46c-1.48-3.42-4.1-6.26-7.3-8.05
			c-2.25-1.5-4.92-2.43-7.73-2.74c-6.88-1.21-15.15,0.03-23.28,3.49c-2.99,1.27-5.78,2.73-8.3,4.33l-3.18,2.02l1.92,3.25l5.96,10.07
			c0,0,1.83,3.09,1.84,3.09l3.23-1.58l0.45-0.22l14.81,33.06l1.42,3.18l3.32-1.06l8.02-2.56l3.51-1.12l-0.93-3.57l-4.26-16.35
			c1.23-0.9,2.37-1.87,3.42-2.87c-0.23,1.96-0.11,3.93,0.42,5.82c1.11,3.96,3.71,7.09,7.31,8.82c3.89,1.87,8.63,1.87,13.02,0.01
			c2.2-0.94,4.16-2.29,5.82-3.92l0.6,6.5l14.03-2.06l-0.02-12.59L157,154.52v-14.04c1.18-0.1,2.38-0.28,3.59-0.57
			c3.23-0.78,5.99-1.85,8.44-3.32l-1.23,7.53l15.81,2.49l0.87-5.7l4.13,7.63l2.52-4.86l0.92,7.98l17.93,3.16l-0.95-6.03
			c2.45,0.28,5.04-0.05,7.54-0.99c0.6-0.23,1.18-0.49,1.74-0.78l-0.72,6.43l11.93,1.67l0.1,4.89l12.43,3.91l16.21-48.83
			L241.4,111.01z M78.76,129.26c-0.58-1.92-1.83-6.05-1.83-6.05c0.01,0.02-0.25-0.89-0.54-1.92c1.14-0.2,2.23-0.09,3.13,0.34
			c0.5,0.24,1.37,0.81,1.55,1.87C81.5,125.88,80.68,127.57,78.76,129.26z M134.17,126.02l3.77-3.66c-0.16,1.69-0.08,3.44,0.28,5.23
			L134.17,126.02z M151.47,124.53c-1-1.82-0.78-4.14,0.69-5.76c1.43-1.56,3.62-2,5.48-1.28L151.47,124.53z M171.17,123.54
			l-2.59-2.33l2.77-2.94l0.83-0.88L171.17,123.54z"/>
		<g>
			<path fill="#004A94" d="M241.4,111.01l-1.6,6.6l-1.48-7.32l-19.82-4.36l0.15,11.02l2.99,0.66l-0.22,1.99
				c-0.03-0.02-0.06-0.03-0.09-0.05c-3.69-1.96-8.28-2.16-12.61-0.53c-1.44,0.55-2.79,1.29-4.02,2.17l-2.98-18.87h-13.19l-0.37,2.16
				h-13.87l-1.59,9.71l-1.15-1.42c-3.36-4.14-8.23-6.41-13.63-6.53l11.78-6.33l-8.21-12.26l-14.85,17.1l2.57,3.13
				c-2.33,0.95-4.35,2.25-6.02,3.83l-12.73-11.29l-4.46,8.53l0.17-8.19l-19.9,6.35l0.51,10.7l3.39-0.88l0.5,5.42
				c-3.87-1.74-8.51-1.7-12.83,0.13c-1.28,0.55-2.47,1.24-3.57,2.03c0.75-3.3,0.57-6.56-0.69-9.46c-1.48-3.42-4.1-6.26-7.3-8.05
				c-2.25-1.5-4.92-2.43-7.73-2.74c-6.88-1.21-15.15,0.03-23.28,3.49c-2.99,1.27-5.78,2.73-8.3,4.33l-3.18,2.02l1.92,3.25
				l5.96,10.07c0,0,1.83,3.09,1.84,3.09l3.23-1.58l0.45-0.22l14.81,33.06l1.42,3.18l3.32-1.06l8.02-2.56l3.51-1.12l-0.93-3.57
				l-4.26-16.35c1.23-0.9,2.37-1.87,3.42-2.87c-0.23,1.96-0.11,3.93,0.42,5.82c1.11,3.96,3.71,7.09,7.31,8.82
				c3.89,1.87,8.63,1.87,13.02,0.01c2.2-0.94,4.16-2.29,5.82-3.92l0.6,6.5l14.03-2.06l-0.02-12.59L157,154.52v-14.04
				c1.18-0.1,2.38-0.28,3.59-0.57c3.23-0.78,5.99-1.85,8.44-3.32l-1.23,7.53l15.81,2.49l0.87-5.7l4.13,7.63l2.52-4.86l0.92,7.98
				l17.93,3.16l-0.95-6.03c2.45,0.28,5.04-0.05,7.54-0.99c0.6-0.23,1.18-0.49,1.74-0.78l-0.72,6.43l11.93,1.67l0.1,4.89l12.43,3.91
				l16.21-48.83L241.4,111.01z M171.35,118.26l0.83-0.88l-1.01,6.16l-2.59-2.33L171.35,118.26z M160.84,93.11l4.34,5.9l-12.42,6.15
				l-0.86-1.3L160.84,93.11z M138.22,127.59l-4.05-1.57l3.77-3.66C137.78,124.05,137.86,125.8,138.22,127.59z M78.61,138.62
				l4.95,19.01l-8.02,2.56l-16.46-36.75c-0.89,0.47-2.54,1.26-4.07,2.01l-5.96-10.07c2.38-1.51,4.97-2.85,7.73-4.03
				c7.76-3.3,15.15-4.28,21.08-3.24c2.09,0.24,4.31,0.86,6.25,2.15c2.67,1.5,4.7,3.63,5.88,6.35
				C92.87,123.22,88.08,132.77,78.61,138.62z M112.61,143.31c-1.67,2.31-3.97,4.23-6.69,5.4c-6.96,2.95-13.91,0-15.77-6.6
				c-1.8-6.4,2.39-13.99,9.13-16.89c4.3-1.82,8.62-1.39,11.72,0.71c1.92,1.3,3.37,3.24,4.06,5.68c0.08,0.27,0.14,0.53,0.19,0.8
				c0.19,0.93,0.27,1.88,0.24,2.83C115.38,138.06,114.34,140.9,112.61,143.31z M153.33,148.67l-29.1-14.56l0.05,15.25l-7.53,1.03
				l-0.53-6.3c2.33-3.98,3.18-8.68,1.96-12.98c-0.67-2.36-1.89-4.43-3.56-6.07l-1.08-12.83l-3.39,0.88l-0.15-3.24l12.09-3.6
				l0.74,12.47l8.91-12.52l8.71,8.29l-12.17,12.83l11.43,4.52c1.28,2.42,3.22,4.48,5.67,5.99c2.37,1.46,5.07,2.33,7.94,2.6V148.67z
				 M159.7,136.23c-0.92,0.22-1.82,0.37-2.7,0.45c-6.68,0.65-12.27-2.42-14.41-7.39c-0.25-0.59-0.46-1.21-0.61-1.86
				c-0.99-4.19-0.15-7.93,1.92-10.86c0.6-0.85,1.3-1.63,2.09-2.33c1.95-1.74,4.44-3.01,7.26-3.69c6.37-1.53,11.97,0.41,15.39,4.62
				l-12.12,12.9c0.83,0.15,2.13-0.07,3.1-0.3c2.89-0.7,4.51-2.22,5.92-3.9l4.84,4.36l1.47,1.32c-0.64,0.67-1.31,1.28-1.99,1.84
				C167.1,133.7,163.91,135.21,159.7,136.23z M205.5,150.12l-9.91-1.51l-2.63-17.46l-3.73,9.63l-5.58-12.04h-0.06l-2.21,13.94
				l-9.3-1.62l1.3-7.78c0.35-0.33,0.7-0.66,1.04-1.02l3.01-3.1l-2.92-2.63l3.1-18.52h9.39l2.34,12.82l2.64-14.86h6.71l2.79,18.11
				c-3.55,4.04-5.27,9.47-4.08,14.44c0.92,3.84,3.29,6.95,6.67,8.75c0.34,0.18,0.7,0.34,1.05,0.5L205.5,150.12z M215.42,144.73
				c-2.41,0.91-4.78,1.09-6.91,0.67c-1.48-0.29-2.83-0.87-4-1.71c-1.87-1.34-3.25-3.34-3.85-5.85c-0.72-3-0.06-6.22,1.55-9.03
				c0.8-1.39,1.84-2.68,3.07-3.79c1.36-1.23,2.96-2.23,4.71-2.91c4.1-1.55,8.14-1.01,11,1.04c1.04,0.74,1.92,1.68,2.59,2.79
				c0.52,0.86,0.92,1.81,1.17,2.86c0.87,3.61-0.17,7.48-2.45,10.6c-0.97,1.33-2.16,2.52-3.54,3.5
				C217.75,143.66,216.62,144.27,215.42,144.73z M239.73,159.39l-6.88-2.06l-0.6-25.36l-3.46,19.56l-7.51-1.19l0.53-5.64
				c4.9-4.14,7.5-10.67,6.08-16.59c-0.63-2.63-1.97-4.9-3.88-6.65l0.63-6.64l-2.83-0.76l0.19-3.55l12.93,2.6l4.35,20.62l4.45-18.49
				l9.84,2.18L239.73,159.39z"/>
			<path fill="#004A94" d="M218.95,126.65c0.08,0.3,0.12,0.61,0.1,0.92c-0.08,1.92-1.89,3.41-4.05,3.32
				c-2.16-0.09-3.85-1.72-3.77-3.64c0.07-1.8,1.68-3.23,3.66-3.32c-0.38-0.08-0.77-0.14-1.18-0.15c-3.61-0.15-6.56,2.41-6.69,5.6
				c-0.14,3.39,2.6,6.18,6.15,6.32c3.61,0.15,6.56-2.41,6.7-5.8C219.92,128.73,219.58,127.61,218.95,126.65z"/>
			<path fill="#004A94" d="M109.42,130.54c0,1.92-1.75,3.48-3.91,3.48s-3.91-1.56-3.91-3.48c0-1.81,1.55-3.29,3.52-3.46
				c-0.38-0.07-0.78-0.11-1.18-0.11c-3.61,0-6.46,2.68-6.46,5.86c0,3.4,2.84,6.07,6.4,6.07c3.61,0,6.46-2.67,6.46-6.07
				c0-1.18-0.39-2.28-1.06-3.21C109.37,129.91,109.42,130.22,109.42,130.54z"/>
		</g>
		<path fill="#004A94" d="M151.63,124.04c-0.9-1.63-0.71-3.71,0.61-5.16c1.28-1.4,3.24-1.8,4.91-1.16L151.63,124.04z M152.24,118.88
			c-1.32,1.45-1.5,3.53-0.61,5.16l5.51-6.33C155.48,117.07,153.52,117.47,152.24,118.88z M160.21,116.77
			c-2.83-2.57-7.21-2.37-9.78,0.46c-2.57,2.83-2.37,7.21,0.46,9.78c0.24,0.21,0.48,0.4,0.74,0.58l9.07-10.32
			C160.54,117.09,160.38,116.92,160.21,116.77z M151.63,124.04c-0.9-1.63-0.71-3.71,0.61-5.16c1.28-1.4,3.24-1.8,4.91-1.16
			L151.63,124.04z"/>
		<path fill="#004A94" d="M83.7,122.92c-0.7-3.9-5.78-6.08-10.84-3.36l1.27,4.46l2.01,6.6l0.91,3.01
			C80.85,131.21,84.68,128.31,83.7,122.92z M78.66,128.87c-0.55-1.8-1.73-5.7-1.73-5.7c0.01,0.02-0.24-0.84-0.51-1.8
			c1.07-0.19,2.1-0.09,2.95,0.31c0.47,0.23,1.29,0.76,1.47,1.76C81.24,125.68,80.46,127.27,78.66,128.87z"/>
	</g>
	<path fill="#FFFFFF" d="M151.59,177.08c-1.26,1.18-3.06,1.67-4.38,1.73c-1.32,0.03-2-0.25-1.98-1.16c0.15-1.61,1.35-3.04,2.93-4.41
		c1.29-1.19,2.72-2.35,3.11-2.69c0.24-0.2,0.48-0.33,0.67-0.37c-0.06-1.06-0.32-2.23-1.17-2.25c-0.77,0.05-1.86,0.85-2.36,1.4
		c-0.08,0.09-0.47,0.62-0.75,0.65c-0.47,0-1.13-0.47-1.08-1.35c0.05-0.49,0.25-0.83,0.52-1.1c0.88-0.78,3.5-2.28,4.49-2.36
		c0.85-0.01,2.32,0.44,2.99,5.18c0.3,1.92,0.13,4.4,0.08,4.92c-0.05,0.54-0.25,1.98-0.7,2.94c-0.16,0.3-0.96,0.44-1.26,0.45
		c-0.47,0-1.29-0.08-1.26-0.85C151.5,177.57,151.55,177.33,151.59,177.08z M148.81,175.05c-0.52,0.68-0.62,1-0.66,1.44
		c-0.02,0.39,0.21,0.58,0.62,0.58c1.24-0.08,2.04-1.06,2.32-1.24c0.4-0.22,0.78-0.41,0.72-0.35c0.07-0.86,0.17-1.99,0.19-3.16
		C151.18,172.89,149.66,174,148.81,175.05z"/>
	<path fill="#FFFFFF" d="M147.46,169.32c-0.49-0.02-0.76-0.55-0.74-0.97c0.07-0.67,0.34-1.39,0.97-1.42c0.36-0.01,0.7-0.18,1-0.19
		c0.16-2.14-0.05-3.84,0.11-5.62c0.1-0.98,0.59-1.96,1.5-2c1.01,0.03,1.39,0.97,1.34,1.82c-0.06,0.85-0.11,3.64-0.24,5.32
		c0.36-0.08,0.55-0.32,0.99-0.33c0.57,0.03,0.91,0.62,0.89,1.43c-0.04,0.66-0.38,1.07-0.66,1.18c-0.43,0.17-0.92,0.23-1.2,0.3
		c-0.05,0.63-0.2,3.98-0.18,4.89c-0.03,0.93-0.13,3.9-0.16,4.35c-0.06,0.43-0.59,0.95-1.31,0.97c-0.88-0.02-1.49-0.3-1.56-0.79
		c-0.01-0.5,0.1-3.01,0.19-4.12c0.09-1.11,0.21-4.21,0.26-4.93C148.28,169.25,147.88,169.32,147.46,169.32z"/>
	<path fill="#FFFFFF" d="M151.94,173.11c0.16-2.42-0.09-4.36-0.71-4.47c-1.13,0.04-3.06,2.72-3.29,4.52
		c-0.09,1.11-0.16,2.51-0.09,3.25c0.08,0.64,0.24,1.44,0.2,1.97c-0.07,0.55-0.51,0.79-1.03,0.8c-1.23-0.06-1.3-0.23-1.47-0.57
		c-0.2-0.78-0.41-5.05-0.44-6.39c0.05-2.74-0.21-8.89,0.1-12.98c0.3-3.17,0.96-4.22,2.38-4.15c0.84,0.1,1.25,1.02,1.17,2.15
		c-0.1,1.12-0.35,2.64-0.62,5.63c-0.16,2.06-0.1,4.71-0.2,6.72c0.44-1.37,2.34-3.64,4.75-3.55c1.65,0.22,2.51,2.83,2.15,7.52
		c-0.09,0.89-0.54,3.31-0.67,4.36c-0.07,0.7-0.47,1.29-1.76,1.24c-0.84-0.12-1.24-0.54-1.21-1.13
		C151.32,177.12,151.73,175.49,151.94,173.11z"/>
	<path fill="#FFFFFF" d="M179.73,162.1c0.81-1.61,1.34-3.43,2-3.4c0.88,0.19,1.49,1.47,1.47,2.13c-0.05,0.39-0.58,1.85-1.25,3.11
		c-0.62,0.96-1.85,1.88-2.29,1.87c-0.62-0.09-1.15-0.53-1.12-1.28C178.63,163.78,179.43,162.66,179.73,162.1z"/>
	<path fill="#FFFFFF" d="M181.65,175.86c-0.09,1.4,0.47,2.18,0.85,2.26c0.38,0.03,0.9-0.24,1.67-0.86c0.47-0.39,1.11-1.06,1.84-1.59
		c0.47-0.32,0.72-0.47,1.08-0.44c0.65,0.09,0.89,0.41,0.85,0.95c-0.16,0.98-1.95,2-3.02,2.6c-0.57,0.33-2.78,1.64-3.47,1.63
		c-1.78-0.28-2.41-2.54-2.29-4.33c0-0.01,0-0.02,0-0.03c-0.14,0.04-0.26,0.06-0.51,0.03c-0.24-0.04-0.45-0.49-0.44-0.81
		c0.08-0.79,0.3-0.95,1.12-1.26c0.02-0.21,0.03-0.41,0.05-0.61c0.37-3.65,1.94-6.45,2.71-6.47c2.92,0.46,4.58,3.09,4.56,4.31
		c-0.07,0.85-0.1,1.67-1.16,2.31c-0.84,0.48-3.33,1.56-3.81,1.87C181.68,175.57,181.67,175.71,181.65,175.86z M181.86,173.09
		c0.52-0.25,2.02-0.85,2.46-1.11c0.06-0.99-0.46-1.83-1.35-1.97C182.51,170.04,181.97,172.04,181.86,173.09z"/>
	<path fill="#FFFFFF" d="M194.62,181.02c0.04-0.38,0.59-5.2,0.64-6.51c0.03-1.18-0.16-2.61-0.85-2.77
		c-0.74-0.04-2.44,1.63-2.68,3.58c-0.19,2.63,0.41,4.5,0.33,5.73c-0.09,0.54-1.11,0.67-1.49,0.63c-0.7-0.1-1.25-0.39-1.4-0.75
		c-0.19-0.82-0.24-3.39-0.25-4.29c0.04-2.85-0.27-4.69-0.19-5.93c0.13-1,1.16-1.52,1.57-1.48c0.97,0.15,1.5,0.47,1.52,2.72
		c0.86-1.4,2.29-2.68,3.68-2.51c0.97,0.19,1.82,0.94,2.1,2.26c0.99-1.16,2.82-1.69,4.2-1.46c1.33,0.34,1.88,2.55,1.88,4.16
		c-0.01,1.11-0.08,3.01-0.14,4.18c-0.07,1.17,0,2.45-0.06,3.17c-0.08,0.72-0.5,1.3-1.77,1.11c-1.27-0.24-1.39-0.84-1.33-1.53
		c0.13-1.53,0.48-4.41,0.6-5.8c0.1-1.21,0.21-2.91-0.64-3.13c-0.87-0.13-1.35,0.22-2.42,1.2c-0.01,0.12-0.07,3.24-0.13,4.32
		c-0.07,1.16-0.08,2.44-0.14,3.15c-0.07,0.71-0.42,1.27-1.67,1.14C194.84,182.03,194.57,181.69,194.62,181.02z"/>
	<path fill="#FFFFFF" d="M215.1,183.97c-1.24,0.97-3.01,1.1-4.31,0.86c-1.29-0.28-1.96-0.76-1.93-1.71
		c0.16-1.68,1.33-2.83,2.88-3.78c1.26-0.85,2.65-1.57,3.03-1.78c0.23-0.12,0.46-0.18,0.65-0.17c-0.07-0.95-0.34-2-1.17-2.23
		c-0.76-0.14-1.81,0.28-2.29,0.66c-0.09,0.08-0.46,0.44-0.73,0.4c-0.46-0.11-1.11-0.7-1.07-1.46c0.04-0.42,0.24-0.66,0.5-0.83
		c0.85-0.45,3.38-1.04,4.36-0.85c0.83,0.2,2.3,0.75,3,5.07c0.32,1.77,0.15,4.15,0.11,4.66c-0.05,0.54-0.26,2-0.71,2.96
		c-0.16,0.3-0.94,0.27-1.24,0.21c-0.46-0.11-1.26-0.41-1.23-1.24C215,184.48,215.05,184.23,215.1,183.97z M212.38,181.25
		c-0.51,0.56-0.61,0.87-0.65,1.32c-0.02,0.4,0.2,0.65,0.6,0.74c1.22,0.21,2-0.64,2.28-0.76c0.4-0.13,0.77-0.25,0.71-0.2
		c0.07-0.86,0.17-1.95,0.18-3.03C214.7,179.68,213.21,180.38,212.38,181.25z"/>
	<path fill="#FFFFFF" d="M148.21,175.15c-0.08,1.01,0.08,1.52,1.01,1.57c0.96,0,1.82-0.52,2.3-0.75c0.45-0.25,1.23-1.25,2-1.27
		c0.76,0.05,1.16,0.49,1.15,0.93c-0.29,1.61-4.2,2.81-6.24,2.85c-2.78-0.14-3.18-1.51-3.08-2.93c0.64-5.34,5.55-9.72,6.57-9.84
		c0.71,0.04,1.17,0.4,1.09,1.55c-0.08,0.85-0.31,1.66-1.06,1.84C149.76,169.66,148.42,173.2,148.21,175.15z"/>
	<g>
		<g>
			<path fill="#2D59A9" d="M72.51,183.74c-0.57,0.42-1.1,0.78-1.57,1.06c0.22-1.18,0.58-2.33,1.01-3.41
				c-0.01,0.07-0.02,0.14-0.03,0.21c-0.01,0.05-0.01,0.11-0.01,0.16C71.88,182.47,72.1,183.17,72.51,183.74z M83.16,176.05
				c-0.59-0.53-1.37-0.76-2.13-0.64c-0.12,0.02-0.23,0.05-0.34,0.08c-0.42,0.14-1.14,0.48-3.26,1.53l-0.87,0.43
				c-0.6,0.29-1.45,0.69-1.89,0.8c-0.03,0.01-0.05,0.01-0.08,0.02c-0.73,0.21-1.33,0.68-1.78,1.25c1.02-2.03,2.15-3.62,2.74-4.4
				c0.38-0.03,0.68-0.1,0.83-0.15c0.04-0.01,0.08-0.02,0.12-0.04c1.3-0.44,1.86-1.7,1.96-2.73c0-0.03,0-0.05,0.01-0.08
				c0.01-0.24,0-0.46-0.03-0.71c-0.01-0.14-0.02-0.3-0.03-0.47c0-0.06-0.01-0.14-0.02-0.2l-0.02-0.17
				c-0.05-0.42-0.12-0.88-0.29-1.34c-0.26-0.76-0.78-1.35-1.47-1.68c-0.72-0.34-1.58-0.36-2.4-0.05c-0.02,0.01-0.04,0.02-0.06,0.02
				c-1.06,0.44-2.4,1.67-3.12,2.61c-2.36,3.16-6.94,10.52-7.51,15.93c0,0.04-0.01,0.08-0.01,0.11c-0.15,2.71,0.84,4.14,1.69,4.85
				c0.81,0.68,2.27,1.38,4.63,0.82c0.03-0.01,0.07-0.02,0.1-0.03c2.3-0.65,4.72-2.01,7.24-4.04c0.51,1.04,1.65,1.98,3.48,1.59
				c0.03-0.01,0.06-0.01,0.08-0.02c1.2-0.3,2.51-1.4,2.7-2.91c0.01-0.05,0.01-0.1,0.01-0.15c0.02-0.4-0.03-0.78-0.08-1.17
				c-0.05-0.4-0.1-0.82-0.08-1.23c0.07-0.85,0.24-2.06,0.48-3.37c0,0,0.12-0.64,0.12-0.64c0.13-0.69,0.17-0.9,0.21-1.47
				c0-0.03,0-0.05,0-0.08C84.13,177.44,83.79,176.61,83.16,176.05z M78.04,169.13c0.01,0.03,0.02,0.06,0.03,0.1
				c0,0.01,0.01,0.02,0.02,0.04C78.07,169.21,78.05,169.17,78.04,169.13z"/>
			<path fill="#2D59A9" d="M92.69,172.59c-1.19-1.07-2.79-1.59-4.18-1.38c-0.28-0.04-0.8-0.12-1.54,0.02
				c-0.03,0.01-0.06,0.01-0.09,0.02c-1.42,0.35-1.96,1.33-2.17,1.72c-2.11,2.3-3.78,5.88-4.05,8.76c0,0.03-0.01,0.06-0.01,0.1
				c-0.12,2.31,0.43,4.02,1.65,5.1c1.16,1.03,2.78,1.36,4.82,1c0.04-0.01,0.08-0.02,0.12-0.02c3.32-0.77,7.14-3.92,7.68-9.01
				c0-0.04,0.01-0.09,0.01-0.13C95.07,175.45,93.79,173.58,92.69,172.59z"/>
			<path fill="#2D59A9" d="M100.76,170.31c-0.22-0.2-0.47-0.35-0.73-0.47c0-0.17,0.01-0.35,0.01-0.51c0.01-0.53,0.01-1.07,0.03-1.29
				c0.05-1.13-0.36-2.13-1.12-2.78c-0.77-0.66-1.81-0.91-2.92-0.69c-0.04,0.01-0.09,0.02-0.13,0.03c-1.71,0.44-2.93,1.94-3.12,3.82
				c-0.07,0.87-0.03,1.64,0,2.38c0.01,0.27,0.02,0.54,0.03,0.81c-1.09,0.55-1.81,1.65-1.94,3.06c0,0.04-0.01,0.08-0.01,0.13
				c-0.03,0.87,0.33,1.73,0.97,2.3c0.26,0.24,0.57,0.42,0.89,0.54c-0.03,0.76-0.06,1.53-0.09,1.95c-0.08,1.08-0.16,3.61-0.15,4.2
				c0,0.09,0.01,0.18,0.02,0.27c0.11,0.74,0.5,1.4,1.1,1.86c0.53,0.39,1.47,0.81,3,0.58c0.03,0,0.07-0.01,0.1-0.02
				c1.58-0.31,2.9-1.65,3.08-3.12c0.01-0.04,0.01-0.09,0.01-0.13c0.03-0.55,0.1-3.52,0.11-4.3c0-0.04,0-0.09,0-0.13
				c-0.02-0.44,0.01-1.73,0.04-2.78c0.01-0.01,0.03-0.01,0.04-0.02c1.05-0.57,1.76-1.74,1.83-3c0-0.03,0-0.06,0-0.08
				C101.84,171.86,101.46,170.93,100.76,170.31z"/>
			<path fill="#2D59A9" d="M107.97,169.13c-0.22-0.2-0.47-0.36-0.73-0.48c0-0.22,0.01-0.43,0.01-0.64c0.01-0.59,0.02-1.15,0.03-1.38
				c0.05-1.16-0.36-2.18-1.12-2.85c-0.75-0.67-1.77-0.93-2.86-0.75c-0.05,0.01-0.09,0.02-0.14,0.03c-1.73,0.41-2.98,1.93-3.17,3.88
				c-0.07,0.9-0.04,1.71-0.01,2.49c0.01,0.29,0.02,0.59,0.03,0.9c-1.1,0.54-1.82,1.66-1.95,3.09c0,0.04-0.01,0.08-0.01,0.12
				c-0.03,0.87,0.32,1.73,0.96,2.32c0.26,0.24,0.57,0.43,0.9,0.56c-0.03,0.8-0.06,1.62-0.09,2.06c-0.08,1.1-0.16,3.63-0.15,4.2
				c0,0.09,0.01,0.17,0.02,0.26c0.2,1.46,1.54,2.79,4.05,2.48c0.03,0,0.07-0.01,0.1-0.02c1.6-0.28,2.95-1.6,3.13-3.08
				c0.01-0.04,0.01-0.09,0.01-0.13c0.03-0.53,0.1-3.51,0.11-4.3c0-0.04,0-0.09,0-0.13c-0.02-0.45,0.01-1.77,0.04-2.84
				c0.01,0,0.01-0.01,0.02-0.01c1.07-0.56,1.78-1.75,1.85-3.03c0-0.03,0-0.05,0-0.08C109.05,170.71,108.67,169.76,107.97,169.13z"/>
			<path fill="#2D59A9" d="M117.88,172.92c-0.93-5.64-3.51-6.53-5.51-6.29c-0.05,0.01-0.09,0.01-0.14,0.02
				c-1.7,0.32-4.67,2.39-5.51,3.17c-0.03,0.03-0.07,0.06-0.1,0.1c-0.65,0.68-1.02,1.48-1.11,2.39c0,0.04-0.01,0.08-0.01,0.12
				c-0.04,0.99,0.33,1.9,1.02,2.56c0.23,0.21,0.48,0.39,0.76,0.53c-1.32,1.31-2.8,3.16-3,5.41c0,0.05-0.01,0.11-0.01,0.16
				c-0.01,0.97,0.34,1.82,1,2.42c1.05,0.95,2.48,0.91,3.46,0.8c0.02,0,0.04,0,0.06-0.01c0.5-0.07,1.76-0.3,3.13-0.98
				c0.6,0.32,1.34,0.45,2.19,0.36c0.02,0,0.04,0,0.06-0.01c0.52-0.06,2.26-0.38,2.96-1.77c0.02-0.04,0.04-0.07,0.05-0.11
				c0.66-1.5,0.83-3.43,0.85-3.65C118.09,177.64,118.26,174.99,117.88,172.92z M110.76,178.42
				C110.76,178.41,110.76,178.41,110.76,178.42c0,0.01,0,0.02,0,0.03C110.76,178.44,110.76,178.43,110.76,178.42z M110.78,178.74
				c0,0.02,0.01,0.04,0.01,0.05h0C110.78,178.78,110.78,178.76,110.78,178.74z"/>
			<path fill="#2D59A9" d="M133.76,174.76c-0.65-0.65-1.57-0.99-2.59-0.95c-0.06,0-0.12,0.01-0.18,0.01
				c-0.85,0.09-1.53,0.51-2.06,0.94c0.43-0.94,0.97-1.71,1.4-1.87c1.05-0.35,2.34-1.3,2.55-3.82c0-0.02,0-0.04,0-0.06
				c0.07-1.2-0.25-2.16-0.94-2.84c-0.45-0.44-1.24-0.96-2.53-0.89c-0.12,0.01-0.24,0.02-0.36,0.05c-2.07,0.46-7.44,5.96-8.1,12
				c0,0.04-0.01,0.08-0.01,0.11c-0.09,1.52,0.3,2.73,1.16,3.61c0.96,0.98,2.34,1.42,4.23,1.34c0.05,0,0.1-0.01,0.15-0.01
				c1.96-0.21,7.51-1.82,8.09-5.16c0.02-0.1,0.03-0.21,0.03-0.31C134.65,176.1,134.34,175.34,133.76,174.76z"/>
			<path fill="#2D59A9" d="M144.2,171.17c-0.71-4.65-2.47-6.99-5.25-6.91c-0.05,0-0.1,0-0.15,0.01c-1.76,0.17-4.81,2.15-5.67,2.93
				c-0.04,0.03-0.07,0.07-0.11,0.1c-0.66,0.68-1.04,1.5-1.12,2.44c0,0.04-0.01,0.08-0.01,0.11c-0.04,1,0.31,1.93,0.98,2.62
				c0.27,0.28,0.59,0.51,0.93,0.68c-1.36,1.26-2.94,3.09-3.14,5.44c0,0.05-0.01,0.11-0.01,0.16c-0.02,1.19,0.5,1.95,0.93,2.37
				c0.99,0.97,2.37,1.04,3.33,1.01c0.02,0,0.04,0,0.06,0c0.5-0.03,1.75-0.16,3.13-0.72c0.58,0.37,1.3,0.55,2.16,0.54
				c0.02,0,0.05,0,0.07,0c0.54-0.02,2.37-0.21,3.12-1.66c0.02-0.04,0.04-0.07,0.05-0.11c0.65-1.42,0.83-3.28,0.86-3.64
				C144.39,176.01,144.56,173.34,144.2,171.17z M139.28,174.35c-0.04,0-0.09,0.01-0.13,0.01c0,0,0.01-0.01,0.01-0.01
				C139.21,174.35,139.24,174.35,139.28,174.35z M137.08,176.46c0,0.01,0,0.03,0,0.04C137.08,176.49,137.08,176.47,137.08,176.46z
				 M137.09,176.85c0,0,0-0.01,0-0.01C137.09,176.84,137.09,176.85,137.09,176.85z"/>
			<path fill="#2D59A9" d="M149.98,165.23c0.01-0.41,0.02-0.82,0.03-1.2c0.02-0.7,0.03-1.35,0.05-1.64
				c0.06-1.19-0.31-2.29-1.02-3.06c-0.64-0.69-1.53-1.08-2.49-1.1c-0.06,0-0.11,0-0.17,0c-1.91,0.1-3.34,1.71-3.56,4
				c-0.08,1.01-0.06,1.95-0.04,2.86c0.01,0.36,0.02,0.73,0.02,1.1c-0.94,0.44-1.8,1.41-1.96,3.16c0,0.04-0.01,0.07-0.01,0.11
				c-0.04,0.87,0.28,1.73,0.87,2.35c0.28,0.3,0.6,0.53,0.96,0.68c-0.04,0.96-0.08,2.04-0.11,2.56c-0.08,1.15-0.17,3.66-0.15,4.25
				c0,0.09,0.01,0.17,0.02,0.26c0.17,1.23,1.25,2.67,3.74,2.69c0.04,0,0.07,0,0.11,0c1.72-0.07,3.21-1.36,3.41-2.93
				c0.01-0.05,0.01-0.09,0.01-0.14c0.03-0.54,0.1-3.61,0.12-4.37c0-0.04,0-0.08,0-0.12c-0.02-0.47,0.02-1.87,0.06-3.02
				c1.07-0.53,1.8-1.69,1.87-3.03c0-0.03,0-0.06,0-0.09C151.77,167.05,151.07,165.81,149.98,165.23z"/>
			<path fill="#2D59A9" d="M157.01,173.39c-0.06,0-0.12,0-0.18,0c-1.02,0.03-1.83,0.55-2.4,1.03c0.43-1.1,1.05-1.99,1.48-2.11
				c-0.02,0-0.04,0.01-0.05,0.01c0.91-0.23,2.48-1.03,2.71-3.8c0-0.02,0-0.04,0-0.06c0.06-1.17-0.23-2.12-0.86-2.82
				c-0.41-0.45-1.15-1-2.37-1.05c-0.13-0.01-0.26,0-0.38,0.02c-2.4,0.31-7.63,5.8-8.27,11.69c0,0.04-0.01,0.08-0.01,0.11
				c-0.03,0.56-0.13,2.25,1.1,3.61c0.9,0.99,2.28,1.53,4.09,1.61c0.05,0,0.1,0,0.15,0c1.99-0.06,7.63-1.28,8.23-4.71
				c0.02-0.1,0.03-0.21,0.03-0.31C160.32,174.86,158.92,173.49,157.01,173.39z"/>
			<path fill="#2D59A9" d="M166.24,164.84c-0.07-0.01-0.14-0.01-0.21-0.02c-0.84-0.02-1.63,0.14-2.36,0.43
				c0.01-0.38,0.03-0.75,0.05-1.09c0.14-1.79,0.28-3.01,0.39-4c0.06-0.57,0.12-1.06,0.16-1.5c0-0.02,0-0.04,0-0.06
				c0.13-2.41-1.18-4.24-3.18-4.44c-0.05-0.01-0.1-0.01-0.15-0.01c-4.07-0.15-4.46,4.42-4.61,6.14c-0.19,2.84-0.1,6.51-0.03,9.45
				c0.03,1.39,0.06,2.6,0.06,3.44c0,0.03,0,0.06,0,0.08c0,0.05,0.22,5.5,0.57,6.78c0.04,0.14,0.09,0.28,0.16,0.41
				c0.77,1.55,2.08,1.73,3.36,1.78c0.05,0,0.11,0,0.16,0c1.08-0.03,2-0.52,2.56-1.28c0.51,0.59,1.29,1.04,2.38,1.18
				c0.07,0.01,0.15,0.02,0.22,0.02c2.24,0.07,3.81-1.21,4.01-3.26c0.04-0.41,0.16-1.18,0.28-1.93c0.15-0.94,0.28-1.83,0.33-2.37
				C170.89,167,168.41,165.1,166.24,164.84z"/>
			<path fill="#2D59A9" d="M179.14,157.54c-0.11-0.02-0.23-0.04-0.34-0.04c-2.01-0.09-2.82,1.82-3.48,3.35
				c-0.17,0.41-0.35,0.83-0.54,1.22c-0.05,0.09-0.13,0.22-0.21,0.35c-0.57,0.96-1.06,1.84-1.17,2.8c-0.01,0.06-0.01,0.11-0.01,0.17
				c-0.07,1.82,1.21,3.31,3.05,3.56c0.08,0.01,0.17,0.02,0.25,0.02c1.88,0.04,3.68-2.14,4.16-2.9c0.03-0.05,0.06-0.1,0.09-0.16
				c0.61-1.16,1.33-2.95,1.43-3.83c0.01-0.07,0.01-0.15,0.02-0.22C182.44,160.37,181.3,157.98,179.14,157.54z"/>
			<path fill="#2D59A9" d="M185.55,174c0.25-0.68,0.3-1.32,0.34-1.77l0.01-0.09c0-0.05,0.01-0.1,0.01-0.15
				c0.02-2.28-2.42-5.82-6.42-6.41c-0.13-0.02-0.27-0.03-0.4-0.02c-2.74,0.09-4.28,4.63-4.69,7.83c-0.62,0.49-1.09,1.22-1.19,2.43
				c0,0.03,0,0.06-0.01,0.09c-0.04,0.86,0.33,1.82,1.01,2.45c0.33,2.32,1.63,4.5,4.13,4.87c0.11,0.02,0.21,0.02,0.32,0.02
				c0.93,0,1.99-0.44,4.36-1.84l0.16-0.1c1.48-0.85,3.72-2.15,4.02-4.19c0.01-0.07,0.02-0.14,0.02-0.21
				C187.27,175.61,186.64,174.54,185.55,174z M175.83,174.59c-0.04,0.01-0.08,0.02-0.12,0.03
				C175.76,174.61,175.8,174.6,175.83,174.59z"/>
			<path fill="#2D59A9" d="M202.61,174.91c-0.02-2.49-0.98-5.59-3.59-6.24c-0.06-0.02-0.13-0.03-0.19-0.04
				c-1.24-0.19-2.57,0-3.75,0.5c-0.65-0.62-1.46-1.05-2.37-1.22c-0.05-0.01-0.1-0.02-0.15-0.02c-1.09-0.13-2.1,0.17-3,0.7
				c-0.49-0.42-1.15-0.72-2.03-0.85c-0.05-0.01-0.11-0.01-0.16-0.02c-1.64-0.12-3.66,1.32-3.91,3.44c-0.01,0.04-0.01,0.09-0.01,0.13
				c-0.04,0.71,0.02,1.5,0.08,2.41c0.07,0.99,0.16,2.12,0.15,3.52c0.01,0.62,0.07,3.58,0.34,4.73c0.03,0.13,0.07,0.25,0.12,0.37
				c0.48,1.1,1.62,1.84,3.14,2.05c0.03,0,0.07,0.01,0.1,0.01c0.94,0.08,1.95-0.14,2.71-0.68c0.49,0.52,1.25,0.95,2.46,1.13
				c0.04,0.01,0.08,0.01,0.12,0.01c1.17,0.12,2.14-0.14,2.88-0.75c0.02-0.02,0.05-0.04,0.07-0.06c0.54,0.7,1.38,1.17,2.49,1.37
				c0.03,0.01,0.06,0.01,0.09,0.01c1.21,0.16,2.21-0.07,3-0.69c0.51-0.4,1.13-1.15,1.26-2.42c0-0.02,0-0.05,0.01-0.07
				c0.03-0.42,0.02-0.91,0.01-1.47c-0.01-0.53-0.01-1.14,0.01-1.68C202.57,177.89,202.61,175.98,202.61,174.91z"/>
			<path fill="#2D59A9" d="M216.67,178.01c-0.69-3.98-2.18-6.12-4.68-6.71c-0.04-0.01-0.08-0.02-0.12-0.02
				c-1.59-0.28-4.58,0.48-5.74,1.12c-0.05,0.03-0.11,0.06-0.16,0.1c-0.87,0.57-1.38,1.43-1.47,2.48c0,0.04-0.01,0.09-0.01,0.13
				c-0.05,1.42,0.76,2.6,1.77,3.24c-1.14,0.84-2.74,2.4-2.95,4.85c0,0.05-0.01,0.1-0.01,0.16c-0.02,1.17,0.44,3.22,3.7,3.89
				c0.02,0,0.04,0.01,0.06,0.01c1.07,0.19,2.14,0.17,3.14-0.04c0.51,0.52,1.2,0.91,2.04,1.1c0.02,0.01,0.05,0.01,0.07,0.01
				c1.21,0.23,2.89,0.02,3.62-1.37c0.02-0.04,0.04-0.08,0.06-0.13c0.66-1.45,0.84-3.43,0.85-3.65
				C216.9,182.45,217.04,179.99,216.67,178.01z M211.36,180.4c0.21-0.05,0.42-0.07,0.63-0.05v0
				C211.77,180.34,211.56,180.37,211.36,180.4z M209.62,182.53c0,0.02,0,0.04,0,0.05C209.62,182.57,209.62,182.55,209.62,182.53z"/>
			<path fill="#2D59A9" d="M221.77,184.53c-0.13-1.09-0.3-2.45-0.3-3.51c0.01-0.74-0.07-2.05-0.16-3.56
				c-0.09-1.54-0.2-3.44-0.17-4.14c0.07-0.88,0.17-1.66,0.25-2.29c0.08-0.59,0.14-1.05,0.16-1.45c0-0.05,0-0.09,0-0.14
				c-0.03-1.77-1.48-3.04-2.9-3.52c-0.03-0.01-0.06-0.02-0.09-0.03c-1.43-0.42-2.44-0.02-3.03,0.38c-1.34,0.92-1.64,2.59-1.75,3.77
				c0,0.02,0,0.04,0,0.06c-0.14,2.21,0.04,4.73,0.2,6.96c0.09,1.27,0.18,2.46,0.18,3.31c-0.01,1.61,0.07,3.24,0.13,4.43
				c0.03,0.6,0.06,1.11,0.06,1.35c0,0.04,0,0.08,0,0.12c0.04,0.77,0.45,2.63,3.37,3.36c0.02,0.01,0.05,0.01,0.07,0.02
				c1.4,0.3,2.34-0.1,2.88-0.49c0.72-0.52,1.17-1.34,1.28-2.31c0.01-0.05,0.01-0.1,0.01-0.15
				C221.98,186.22,221.91,185.63,221.77,184.53z"/>
			<path fill="#2D59A9" d="M226.8,185.72c-0.13-1.1-0.3-2.46-0.3-3.51c0.01-0.75-0.08-2.13-0.17-3.59c-0.09-1.46-0.2-3.28-0.17-3.92
				c0.07-0.83,0.16-1.56,0.24-2.15c0.08-0.56,0.13-1,0.15-1.4c0-0.05,0-0.1,0-0.14c-0.03-1.7-1.47-2.96-2.88-3.46
				c-0.03-0.01-0.06-0.02-0.09-0.03c-1.46-0.45-2.48-0.07-3.08,0.33c-1.33,0.89-1.61,2.49-1.71,3.61c0,0.02,0,0.04,0,0.06
				c-0.13,2.08,0.05,4.51,0.21,6.66c0.1,1.27,0.19,2.47,0.19,3.33c-0.01,1.6,0.07,3.24,0.13,4.44c0.03,0.61,0.06,1.14,0.06,1.39
				c0,0.04,0,0.07,0,0.11c0.04,0.77,0.44,2.63,3.32,3.42c0.02,0.01,0.04,0.01,0.07,0.02c1.4,0.34,2.35-0.06,2.89-0.44
				c0.74-0.52,1.2-1.35,1.3-2.35c0-0.05,0.01-0.1,0.01-0.14C227.01,187.47,226.93,186.82,226.8,185.72z"/>
		</g>
		<path fill="#FFFFFF" d="M81.56,180.12c-0.23,1.25-0.42,2.58-0.51,3.63c-0.07,1.04,0.18,1.93,0.16,2.43c-0.06,0.5-0.63,0.91-1.01,1
			c-0.38,0.08-0.85,0.11-1.06-0.51c-0.1-0.3-0.14-0.94-0.08-1.74c0.07-0.93,0.17-1.62,0.27-2.17c-3.61,3.71-7.05,6.05-10.01,6.89
			c-2.66,0.62-3.72-0.85-3.58-3.37c0.47-4.41,4.24-11.02,7.06-14.79c0.64-0.83,1.68-1.69,2.2-1.91c0.39-0.15,0.8-0.12,0.96,0.37
			c0.11,0.27,0.15,0.71,0.21,1.08c0.02,0.45,0.07,0.79,0.06,0.94c-0.02,0.25-0.15,0.72-0.45,0.82c-0.13,0.04-0.29,0.08-0.48,0.08
			c-0.16-0.01-0.36-0.04-0.47-0.01c-0.13,0.04-0.49,0.16-0.94,0.72c-1.91,2.47-4.86,7.18-5.35,12.15c-0.1,1.68,0.56,2.14,1.68,1.88
			c1.72-0.51,5.58-3.25,8.16-6.28c0.17-0.17,0.28-0.32,0.43-0.51c-0.35,0.09-0.65,0.34-1.6,0.82c-0.95,0.51-1.35,0.91-2.04,1.08
			c-0.68,0.13-1.04-0.44-1.03-0.9c0.05-0.47,0.5-1.27,1.05-1.43c0.55-0.13,1.28-0.45,2.34-0.96c1.48-0.72,3.43-1.7,3.84-1.84
			c0.19-0.03,0.49,0.18,0.48,0.61C81.81,178.8,81.79,178.84,81.56,180.12z"/>
		<path fill="#FFFFFF" d="M86.42,174.42c0.34-0.33,0.28-0.81,0.99-0.98c0.68-0.14,0.81,0.11,1.43-0.01
			c1.31-0.21,4.03,1.01,3.83,5.24c-0.45,4.21-3.67,6.53-5.95,7.06c-2.32,0.41-4.03-0.23-3.84-3.78
			C83.12,179.54,84.6,176.37,86.42,174.42z M89.73,179.75c0.13-2.22-0.57-4.18-1.33-4.11c-0.78,0.25-2.23,2.95-2.48,5.56
			c-0.14,2.17,0.44,2.79,1.29,2.67C88.18,183.62,89.51,182,89.73,179.75z"/>
		<path fill="#FFFFFF" d="M93.86,175.58c-0.49,0.07-0.77-0.34-0.76-0.7c0.05-0.58,0.31-1.22,0.94-1.36
			c0.35-0.07,0.69-0.28,0.99-0.34c0.12-1.81-0.14-3.13-0.02-4.55c0.08-0.78,0.54-1.63,1.44-1.87c1.01-0.2,1.41,0.45,1.37,1.13
			c-0.04,0.69-0.02,2.96-0.12,4.39c0.36-0.14,0.54-0.37,0.97-0.46c0.57-0.08,0.92,0.36,0.91,1.06c-0.03,0.57-0.36,0.99-0.63,1.14
			c-0.42,0.22-0.9,0.36-1.18,0.47c-0.04,0.55-0.13,3.58-0.1,4.41c-0.01,0.86-0.08,3.74-0.11,4.2c-0.05,0.43-0.58,1.05-1.29,1.19
			c-0.87,0.13-1.48-0.05-1.55-0.54c-0.01-0.5,0.07-2.95,0.14-4c0.07-1.05,0.14-3.83,0.18-4.46
			C94.67,175.38,94.26,175.5,93.86,175.58z"/>
		<path fill="#FFFFFF" d="M101.07,174.36c-0.49,0.06-0.77-0.37-0.75-0.74c0.05-0.6,0.31-1.25,0.94-1.38
			c0.35-0.07,0.69-0.27,0.99-0.32c0.13-1.88-0.13-3.27-0.01-4.76c0.08-0.82,0.55-1.71,1.45-1.92c1.01-0.17,1.4,0.53,1.37,1.25
			c-0.05,0.72-0.03,3.1-0.14,4.58c0.36-0.13,0.54-0.37,0.97-0.45c0.57-0.07,0.92,0.4,0.91,1.12c-0.03,0.59-0.36,1.01-0.63,1.15
			c-0.42,0.22-0.9,0.35-1.18,0.45c-0.04,0.57-0.14,3.65-0.1,4.49c-0.01,0.87-0.08,3.75-0.11,4.2c-0.05,0.43-0.58,1.02-1.29,1.14
			c-0.87,0.11-1.48-0.08-1.55-0.57c-0.01-0.49,0.07-2.94,0.14-3.99c0.07-1.06,0.14-3.89,0.19-4.54
			C101.88,174.18,101.47,174.29,101.07,174.36z"/>
		<path fill="#FFFFFF" d="M112.8,180c-1.23,1.26-3,1.91-4.3,2.09c-1.3,0.15-1.97-0.07-1.96-0.96c0.14-1.59,1.29-3.06,2.84-4.5
			c1.25-1.24,2.65-2.46,3.03-2.81c0.23-0.21,0.47-0.35,0.66-0.41c-0.07-0.98-0.34-2.03-1.18-1.96c-0.76,0.13-1.82,0.96-2.3,1.52
			c-0.07,0.09-0.46,0.62-0.73,0.67c-0.46,0.04-1.12-0.33-1.09-1.13c0.04-0.45,0.24-0.78,0.5-1.05c0.86-0.79,3.42-2.43,4.39-2.61
			c0.84-0.1,2.3,0.09,3.03,4.47c0.33,1.77,0.18,4.16,0.14,4.66c-0.04,0.53-0.23,1.94-0.66,2.92c-0.16,0.31-0.94,0.52-1.24,0.56
			c-0.46,0.04-1.27,0.04-1.25-0.72C112.71,180.49,112.75,180.25,112.8,180z M110.03,178.3c-0.5,0.7-0.6,1.02-0.63,1.45
			c-0.02,0.38,0.21,0.54,0.61,0.5c1.22-0.18,2-1.21,2.27-1.41c0.4-0.25,0.76-0.46,0.71-0.4c0.06-0.84,0.14-1.92,0.15-3.03
			C112.35,176.03,110.86,177.21,110.03,178.3z"/>
		<path fill="#FFFFFF" d="M126.01,176.95c-0.07,0.99,0.1,1.47,1.01,1.43c0.94-0.09,1.79-0.67,2.26-0.93c0.44-0.28,1.2-1.32,1.96-1.4
			c0.75-0.02,1.15,0.38,1.14,0.8c-0.27,1.58-4.11,3.09-6.12,3.31c-2.75,0.11-3.15-1.19-3.07-2.58c0.57-5.21,5.37-9.83,6.36-10.05
			c0.7-0.04,1.16,0.26,1.1,1.37c-0.07,0.82-0.29,1.63-1.03,1.88C127.48,171.54,126.2,175.05,126.01,176.95z"/>
		<path fill="#FFFFFF" d="M139.12,178.15c-1.22,1.17-2.98,1.67-4.28,1.74c-1.29,0.04-1.96-0.22-1.95-1.12
			c0.14-1.58,1.29-2.99,2.83-4.35c1.25-1.18,2.64-2.33,3.02-2.67c0.23-0.2,0.46-0.33,0.65-0.37c-0.07-1.04-0.33-2.18-1.16-2.19
			c-0.76,0.06-1.82,0.85-2.3,1.4c-0.08,0.09-0.46,0.61-0.73,0.65c-0.46,0-1.11-0.45-1.07-1.31c0.04-0.48,0.24-0.81,0.5-1.08
			c0.85-0.77,3.4-2.27,4.38-2.36c0.84-0.02,2.28,0.41,2.98,5.05c0.32,1.87,0.17,4.31,0.13,4.82c-0.04,0.53-0.23,1.95-0.66,2.89
			c-0.16,0.3-0.94,0.44-1.23,0.46c-0.46,0.01-1.27-0.06-1.24-0.82C139.03,178.64,139.07,178.4,139.12,178.15z M136.37,176.2
			c-0.5,0.67-0.59,0.99-0.63,1.42c-0.02,0.38,0.21,0.57,0.61,0.56c1.21-0.09,1.99-1.06,2.26-1.24c0.39-0.22,0.76-0.41,0.7-0.35
			c0.06-0.85,0.15-1.96,0.15-3.1C138.67,174.06,137.19,175.15,136.37,176.2z"/>
		<path fill="#FFFFFF" d="M143.82,170.51c-0.48-0.01-0.75-0.53-0.74-0.95c0.06-0.66,0.32-1.36,0.94-1.4
			c0.35-0.01,0.68-0.18,0.98-0.2c0.14-2.09-0.09-3.77,0.05-5.51c0.09-0.96,0.56-1.93,1.45-1.97c0.99,0.02,1.37,0.94,1.33,1.77
			c-0.05,0.83-0.07,3.57-0.18,5.21c0.35-0.09,0.53-0.32,0.96-0.33c0.56,0.02,0.9,0.6,0.89,1.39c-0.04,0.65-0.36,1.05-0.64,1.16
			c-0.42,0.17-0.9,0.24-1.17,0.31c-0.04,0.62-0.16,3.91-0.13,4.79c-0.02,0.91-0.08,3.82-0.11,4.27c-0.05,0.42-0.57,0.94-1.27,0.96
			c-0.86-0.01-1.47-0.28-1.53-0.76c-0.01-0.49,0.07-2.95,0.15-4.04c0.08-1.09,0.16-4.13,0.21-4.84
			C144.62,170.43,144.22,170.5,143.82,170.51z"/>
		<path fill="#FFFFFF" d="M165.3,174c0.13-2.37-0.14-4.27-0.74-4.38c-1.1,0.05-2.97,2.7-3.18,4.46c-0.08,1.09-0.13,2.46-0.06,3.19
			c0.09,0.62,0.25,1.41,0.22,1.93c-0.06,0.54-0.49,0.78-1,0.8c-1.2-0.05-1.28-0.21-1.45-0.54c-0.21-0.76-0.46-4.95-0.49-6.26
			c0.02-2.68-0.3-8.71-0.03-12.72c0.26-3.11,0.9-4.14,2.29-4.09c0.82,0.09,1.23,0.99,1.17,2.09c-0.09,1.1-0.32,2.59-0.55,5.52
			c-0.14,2.02-0.05,4.61-0.13,6.59c0.42-1.35,2.26-3.59,4.62-3.53c1.62,0.2,2.48,2.75,2.18,7.35c-0.08,0.88-0.5,3.25-0.61,4.28
			c-0.07,0.69-0.45,1.27-1.71,1.23c-0.82-0.11-1.22-0.52-1.2-1.1C164.72,177.93,165.11,176.33,165.3,174z"/>
		<path fill="#FFFFFF" d="M176.78,163.09c0.78-1.59,1.28-3.38,1.92-3.35c0.87,0.17,1.48,1.43,1.46,2.07
			c-0.05,0.38-0.55,1.82-1.2,3.06c-0.6,0.95-1.8,1.86-2.23,1.86c-0.61-0.08-1.13-0.5-1.11-1.25
			C175.72,164.74,176.49,163.64,176.78,163.09z"/>
		<path fill="#FFFFFF" d="M178.8,176.55c-0.08,1.38,0.48,2.14,0.85,2.2c0.38,0.02,0.88-0.24,1.63-0.86
			c0.46-0.38,1.08-1.05,1.79-1.57c0.45-0.32,0.7-0.47,1.05-0.44c0.64,0.08,0.87,0.39,0.84,0.92c-0.14,0.96-1.89,1.98-2.93,2.58
			c-0.56,0.33-2.71,1.63-3.38,1.63c-1.75-0.26-2.39-2.46-2.29-4.22c0-0.01,0-0.02,0-0.03c-0.14,0.04-0.26,0.06-0.5,0.04
			c-0.24-0.04-0.45-0.48-0.44-0.79c0.07-0.78,0.28-0.93,1.08-1.25c0.02-0.2,0.03-0.4,0.05-0.6c0.33-3.58,1.84-6.34,2.59-6.36
			c2.86,0.42,4.52,2.98,4.51,4.17c-0.06,0.84-0.08,1.64-1.11,2.28c-0.82,0.48-3.25,1.56-3.71,1.87
			C178.83,176.27,178.82,176.4,178.8,176.55z M178.98,173.83c0.5-0.25,1.98-0.85,2.4-1.11c0.05-0.98-0.47-1.79-1.34-1.92
			C179.59,170.84,179.08,172.8,178.98,173.83z"/>
		<path fill="#FFFFFF" d="M191.56,181.47c0.03-0.37,0.52-5.11,0.56-6.39c0.02-1.16-0.18-2.56-0.87-2.71
			c-0.73-0.03-2.38,1.62-2.59,3.54c-0.16,2.58,0.45,4.41,0.39,5.61c-0.08,0.53-1.08,0.67-1.46,0.63c-0.69-0.09-1.23-0.37-1.38-0.72
			c-0.19-0.8-0.27-3.32-0.28-4.21c0.01-2.79-0.31-4.59-0.24-5.8c0.12-0.98,1.12-1.5,1.52-1.47c0.96,0.14,1.48,0.45,1.52,2.65
			c0.82-1.38,2.22-2.65,3.58-2.49c0.95,0.18,1.8,0.91,2.08,2.19c0.96-1.15,2.74-1.68,4.1-1.47c1.31,0.32,1.87,2.48,1.89,4.05
			c0,1.09-0.04,2.95-0.1,4.1c-0.05,1.14,0.02,2.4-0.03,3.11c-0.07,0.7-0.47,1.28-1.73,1.11c-1.24-0.22-1.37-0.81-1.32-1.49
			c0.12-1.5,0.43-4.33,0.53-5.69c0.09-1.19,0.18-2.86-0.66-3.06c-0.85-0.12-1.32,0.22-2.36,1.2c-0.01,0.12-0.04,3.18-0.08,4.24
			c-0.06,1.14-0.05,2.4-0.1,3.09c-0.06,0.69-0.4,1.25-1.62,1.13C191.79,182.46,191.52,182.14,191.56,181.47z"/>
		<path fill="#FFFFFF" d="M211.66,184.16c-1.2,0.96-2.94,1.11-4.21,0.88c-1.27-0.26-1.92-0.72-1.91-1.66
			c0.14-1.64,1.27-2.78,2.78-3.73c1.22-0.85,2.58-1.57,2.95-1.78c0.23-0.12,0.45-0.18,0.64-0.18c-0.07-0.93-0.36-1.96-1.17-2.17
			c-0.75-0.13-1.77,0.29-2.24,0.67c-0.09,0.08-0.44,0.44-0.71,0.4c-0.45-0.1-1.09-0.67-1.07-1.41c0.04-0.41,0.23-0.65,0.48-0.82
			c0.83-0.45,3.3-1.05,4.26-0.88c0.82,0.19,2.26,0.71,2.99,4.94c0.33,1.73,0.19,4.06,0.15,4.57c-0.04,0.53-0.23,1.96-0.66,2.91
			c-0.16,0.3-0.92,0.27-1.22,0.21c-0.45-0.1-1.24-0.39-1.21-1.2C211.57,184.66,211.61,184.41,211.66,184.16z M208.96,181.52
			c-0.49,0.55-0.58,0.86-0.62,1.3c-0.02,0.39,0.2,0.64,0.6,0.72c1.2,0.19,1.95-0.64,2.22-0.77c0.39-0.14,0.75-0.25,0.69-0.2
			c0.06-0.84,0.14-1.91,0.15-2.97C211.23,179.96,209.77,180.66,208.96,181.52z"/>
		<path fill="#FFFFFF" d="M217.94,168.04c0.6,0.2,1.37,0.76,1.38,1.43c-0.03,0.7-0.27,1.99-0.41,3.71c-0.08,1.43,0.33,6.3,0.32,7.84
			c0,2.05,0.52,4.81,0.49,5.6c-0.08,0.78-0.62,1.02-1.45,0.84c-0.76-0.19-1.64-0.6-1.67-1.31c0-0.84-0.2-3.35-0.19-5.79
			c0-2.44-0.59-6.81-0.38-10.13C216.21,168.15,216.88,167.74,217.94,168.04z"/>
		<path fill="#FFFFFF" d="M222.94,169.66c0.6,0.21,1.37,0.76,1.38,1.39c-0.03,0.66-0.26,1.86-0.39,3.5
			c-0.07,1.37,0.35,6.12,0.34,7.66c0,2.04,0.52,4.85,0.49,5.66c-0.08,0.8-0.62,1.04-1.45,0.84c-0.76-0.21-1.63-0.64-1.67-1.37
			c0-0.86-0.2-3.41-0.19-5.84c-0.01-2.43-0.61-6.7-0.41-9.84C221.22,169.69,221.88,169.34,222.94,169.66z"/>
		<path fill="#FFFFFF" d="M151.7,176.13c-0.07,0.99,0.1,1.49,1.01,1.52c0.94-0.01,1.78-0.53,2.25-0.76
			c0.44-0.25,1.19-1.24,1.95-1.26c0.75,0.04,1.14,0.47,1.13,0.9c-0.27,1.58-4.09,2.8-6.08,2.85c-2.73-0.11-3.13-1.45-3.05-2.84
			c0.58-5.24,5.34-9.58,6.34-9.71c0.7,0.03,1.15,0.38,1.09,1.5c-0.07,0.83-0.29,1.63-1.02,1.82
			C153.16,170.74,151.88,174.22,151.7,176.13z"/>
		<g>
			<path fill="#2D59A9" d="M235.45,186.77c-0.2-0.23-0.33-0.46-0.55-0.64c0.37-0.54,0.54-1.06,0.6-1.83
				c0.02-0.33,0.07-0.89,0.13-1.54c0.12-1.33,0.29-3.16,0.39-4.88c0.1-1.61,0.28-3.06,0.4-3.92c0.05-0.4,0.08-0.64,0.1-0.82
				c0.15-2.11-1.33-3.81-3.45-3.96c-0.89-0.06-1.84,0.28-2.6,0.94c-0.76,0.66-1.23,1.53-1.29,2.39c-0.03,0.4-0.03,1.24-0.02,2.7
				c0.01,1.4,0.02,3.15-0.03,3.81c-0.06,0.83-0.12,2.38-0.17,3.63c-0.03,0.76-0.06,1.49-0.07,1.69c-0.04,0.58,0.02,1.01,0.37,1.52
				c-0.97,0.54-1.59,1.53-1.7,2.62c-0.09,0.92,0.16,1.76,0.73,2.43c0.74,0.86,1.91,1.32,3.57,1.41c2.14,0.11,4.4-0.79,4.6-2.74
				C236.53,188.73,236.16,187.59,235.45,186.77z"/>
			<path fill="#FFFFFF" d="M232.92,171.08c1.14,0.08,1.76,0.94,1.69,1.92c-0.03,0.43-0.35,2.43-0.49,4.76
				c-0.16,2.55-0.45,5.36-0.52,6.39c-0.05,0.73-0.39,1.34-1.24,1.33c-1.19-0.02-1.56-0.85-1.51-1.47c0.04-0.6,0.09-3.54,0.18-4.86
				c0.09-1.3-0.01-5.72,0.05-6.51C231.13,171.91,232.08,171.02,232.92,171.08z M232.15,186.9c1.3,0.08,2.36,1.71,2.22,2.44
				c-0.11,0.58-1.2,0.98-2.34,0.92c-1.54-0.08-2.35-0.58-2.25-1.57C229.84,187.97,231.24,186.85,232.15,186.9z"/>
		</g>
	</g>
</g>
</svg>
