<svg display="none" xmlns="http://www.w3.org/2000/svg">
	<symbol id="logo" viewBox="0 0 50 50">
		<path
			d="M20.4506 5.25918C19.0919 5.69691 17.9456 6.47652 17.6601 7.15634L17.5398 7.4419L15.6561 7.43301L15.4116 6.93006C15.2253 6.54668 15.063 6.3708 14.7263 6.18701L14.2864 5.94591H11.1062C6.93498 5.94591 6.40895 6.15341 6.40895 7.80355V8.26796L5.69955 8.61478C3.08441 9.8924 1.03538 12.416 0.225789 15.3546L0.000346207 16.1748V26.2584C0.000346207 37.2698 -0.0327188 36.5584 0.547422 38.1166C1.84798 41.6086 4.86291 44.1352 8.54916 44.8258C9.78859 45.0581 40.2114 45.0581 41.4508 44.8258C45.1371 44.1362 48.152 41.6096 49.4526 38.1166C50.0327 36.5584 49.9997 37.2698 49.9997 26.2584V16.1748L49.7832 15.4031C48.649 11.3647 45.7433 8.61182 41.6342 7.67905C41.02 7.53972 40.2134 7.50514 36.6765 7.46858L32.4532 7.42412L32.3369 7.14745C32.0504 6.46565 30.8209 5.64553 29.4663 5.23349C28.3992 4.9084 21.4756 4.92816 20.4506 5.25918ZM40.0601 10.8222C43.053 11.1256 45.3856 12.9526 46.3976 15.7874L46.6731 16.5591L46.7012 25.871C46.7332 36.5189 46.7653 36.0218 45.9236 37.7342C44.9758 39.662 43.064 41.1205 40.9288 41.5453C39.7856 41.7726 10.2114 41.7726 9.07118 41.5453C6.91594 41.1145 5.0112 39.6284 4.00923 37.5949C3.24473 36.0426 3.26677 36.4072 3.29883 25.871L3.32689 16.5591L3.63149 15.7163C4.60841 13.0168 6.9961 11.1167 9.77356 10.8291C10.9589 10.7066 38.8517 10.6997 40.0601 10.8212V10.8222ZM9.51706 11.8884C6.37889 12.3419 4.35391 14.8942 4.35391 18.398V19.6954H11.0661L11.2915 19.2369C12.2845 17.2123 14.2844 15.0167 16.4357 13.5869C17.2402 13.0524 19.3614 11.9763 19.6109 11.9763C19.669 11.9763 19.7161 11.9328 19.7161 11.8795C19.7161 11.7609 10.3457 11.7678 9.51706 11.8874V11.8884ZM30.2839 11.8548C30.2839 11.9002 30.4492 11.9951 30.6506 12.0652C33.7206 13.1294 37.462 16.4702 38.7385 19.2863L38.9249 19.6964H45.6471V18.399C45.6471 15.1284 44.1341 12.9842 41.1462 12.0168C40.5581 11.8261 30.2849 11.674 30.2849 11.8558L30.2839 11.8548ZM24.0707 12.5178C12.6663 13.6156 7.13237 25.9748 14.0931 34.7976C21.7892 44.5512 37.8768 39.7015 38.8858 27.3236C39.5611 19.0343 32.2528 11.7313 24.0707 12.5178ZM26.6638 15.9455C33.2327 16.8753 37.3277 23.963 34.8278 30.0774C31.9482 37.1216 22.708 38.9279 17.4136 33.4804C10.3908 26.2544 16.5819 14.5187 26.6638 15.9455ZM23.8723 17.5719C17.9617 18.395 14.553 24.3474 16.8885 29.7701C19.5698 35.9942 28.5605 36.7659 32.376 31.1001C36.5512 24.9007 31.2949 16.5394 23.8723 17.5719ZM27.7168 18.9098C28.8581 19.2596 29.7118 20.0768 29.7318 20.8366C29.7779 22.5886 26.2289 22.5332 25.0416 20.7635C24.1388 19.4187 25.747 18.3051 27.7168 18.9098ZM22.701 32.2552C23.7821 32.4805 25.3923 33.4557 25.3923 33.8846C25.3923 34.8865 21.7581 34.2393 20.697 33.0486C19.9636 32.2246 20.8564 31.8708 22.701 32.2552ZM41.9128 35.9991C39.8938 36.6167 40.2846 39.3863 42.3897 39.3794C44.5309 39.3725 44.6902 36.2629 42.564 35.9734C42.3486 35.9438 42.056 35.9556 41.9128 36.0001V35.9991Z" />
	</symbol>
	<symbol id="camera" viewBox="0 0 62 50">
		<g>
			<path
				d="M30.897 50.036C22.766 50.036 14.635 50.036 6.505 50.036C6.478 50.036 6.447 50.037 6.415 50.037C2.872 50.037 0 47.165 0 43.622C0 43.59 0 43.559 0.001 43.527V43.532C0.0723333 34.0967 0.0723333 24.6554 0.001 15.208C0.001 15.197 0.001 15.185 0.001 15.172C0.001 11.619 2.881 8.73903 6.434 8.73903C22.767 8.73903 39.082 8.73903 55.415 8.73903C55.497 8.73503 55.593 8.73303 55.69 8.73303C59.085 8.73303 61.837 11.485 61.837 14.88C61.837 14.983 61.834 15.085 61.829 15.186L61.83 15.172V43.532C61.837 43.641 61.841 43.768 61.841 43.897C61.841 47.292 59.089 50.044 55.694 50.044C55.59 50.044 55.486 50.041 55.383 50.036L55.398 50.037L30.897 50.036ZM30.897 43.871C30.939 43.871 30.99 43.872 31.04 43.872C39.014 43.872 45.479 37.407 45.479 29.433C45.479 21.459 39.014 14.994 31.04 14.994C23.078 14.994 16.622 21.438 16.601 29.394V29.396C16.65 37.281 22.988 43.669 30.849 43.799H30.861L30.897 43.871ZM12.384 19.049C12.345 17.928 11.436 17.031 10.313 17.012H10.311C9.176 17.012 8.256 17.932 8.256 19.067C8.256 20.202 9.176 21.122 10.311 21.122C11.448 21.102 12.364 20.186 12.384 19.051V19.049Z"
				fill="#CCBA8D" />
			<path
				d="M42.28 6.16506H19.532C19.889 4.73506 20.211 3.35906 20.568 1.98306C20.646 0.853064 21.582 -0.0339355 22.725 -0.0339355C22.859 -0.0339355 22.991 -0.0219355 23.118 0.00206446L23.105 6.4455e-05H38.938C39.008 -0.00793555 39.089 -0.0129355 39.17 -0.0129355C40.219 -0.0129355 41.085 0.766065 41.224 1.77606L41.225 1.78706C41.565 3.07406 41.886 4.36006 42.208 5.64706C42.244 5.80806 42.244 5.96906 42.279 6.16506H42.28Z"
				fill="#CCBA8D" />
			<path
				d="M30.861 43.799C22.902 43.778 16.459 37.322 16.459 29.36C16.459 21.386 22.924 14.921 30.898 14.921C38.872 14.921 45.337 21.386 45.337 29.36C45.337 29.41 45.337 29.46 45.336 29.511V29.503C45.215 37.412 38.785 43.78 30.863 43.799H30.861ZM30.861 39.671C36.556 39.671 41.172 35.055 41.172 29.36C41.172 23.665 36.556 19.049 30.861 19.049C25.179 19.049 20.57 23.645 20.55 29.322V29.324C20.55 29.345 20.55 29.371 20.55 29.396C20.55 35.071 25.15 39.671 30.825 39.671C30.863 39.671 30.901 39.671 30.938 39.67H30.932L30.861 39.671Z"
				fill="#CCBA8D" />
			<path
				d="M12.384 19.049C12.365 20.174 11.468 21.083 10.35 21.122H10.346C9.211 21.122 8.291 20.202 8.291 19.067C8.291 17.932 9.211 17.012 10.346 17.012C11.455 17.05 12.345 17.94 12.383 19.046V19.05L12.384 19.049Z"
				fill="#BDAE82" />
			<path
				d="M31.129 21.1401C35.507 21.2841 39.019 24.8011 39.152 29.1691V29.1821C39.154 29.2201 39.156 29.2651 39.156 29.3111C39.156 30.4431 38.272 31.3681 37.156 31.4341H37.15C37.145 31.4341 37.138 31.4341 37.132 31.4341C35.987 31.4341 35.059 30.5061 35.059 29.3611C35.02 27.1091 33.215 25.2921 30.972 25.2331H30.966C30.949 25.2331 30.93 25.2341 30.91 25.2341C29.785 25.2341 28.873 24.3221 28.873 23.1971C28.873 23.1651 28.874 23.1341 28.875 23.1021V23.1061C28.929 22.0051 29.836 21.1321 30.946 21.1321C31.01 21.1321 31.073 21.1351 31.135 21.1401L31.127 21.1391L31.129 21.1401Z"
				fill="#CCBA8D" />
		</g>
	</symbol>
	<symbol id="video" viewBox="0 0 60 50">
		<g>
			<path
				d="M59.843 1.30696V48.781C59.465 49.535 58.698 50.043 57.812 50.043C57.748 50.043 57.685 50.04 57.622 50.035L57.63 50.036H2.194C2.128 50.044 2.051 50.048 1.973 50.048C0.876 50.048 -0.0130005 49.159 -0.0130005 48.062C-0.0130005 47.984 -0.00900049 47.907 -4.88944e-07 47.831L-0.00100049 47.84C-0.00100049 32.6133 -0.00100049 17.387 -0.00100049 2.16096C-0.00600049 2.10596 -0.0100005 2.04196 -0.0100005 1.97696C-0.0100005 0.879962 0.878999 -0.00903808 1.976 -0.00903808C2.047 -0.00903808 2.116 -0.00503808 2.185 0.00196192L2.176 0.000961917C20.666 0.000961917 39.1447 0.000961917 57.612 0.000961917C57.687 -0.00803808 57.774 -0.0140381 57.863 -0.0140381C58.75 -0.0140381 59.511 0.524962 59.837 1.29296L59.842 1.30696H59.843ZM22.544 24.983V30.575C22.545 30.941 22.596 31.295 22.69 31.631L22.683 31.603C23.038 32.503 23.901 33.128 24.909 33.128C25.419 33.128 25.892 32.968 26.28 32.695L26.272 32.7C29.6 30.784 32.892 28.85 36.185 26.899C36.865 26.531 37.318 25.823 37.318 25.009C37.318 24.195 36.864 23.487 36.196 23.124L36.185 23.118C32.892 21.097 29.513 19.163 26.133 17.212C25.78 16.992 25.351 16.861 24.892 16.861C23.583 16.861 22.523 17.922 22.523 19.23C22.523 19.28 22.525 19.33 22.528 19.379V19.372C22.65 21.236 22.545 23.118 22.545 24.982L22.544 24.983ZM9.443 6.55096V3.57196H3.572V6.55096H9.443ZM3.484 46.376H9.442V43.449H3.484V46.376ZM18.833 3.57096H13.066V6.53296H18.833V3.57096ZM22.456 3.57096V6.53296H28.24V3.48396L22.456 3.57096ZM37.613 6.55096V3.57196H31.846V6.53396L37.613 6.55096ZM47.038 3.57096H41.219V6.53296H47.038V3.57096ZM37.631 46.394V43.554H31.847V46.481L37.631 46.394ZM18.815 46.394V43.554H13.048V46.481L18.815 46.394ZM28.24 46.394V43.554H22.473V46.498L28.24 46.394ZM47.038 43.449H41.219V46.376H47.038V43.449ZM56.289 6.55096V3.48496H50.627V6.55096H56.289ZM56.289 43.449H50.627V46.393H56.306L56.289 43.449Z"
				fill="#BDAE82" />
		</g>
	</symbol>
	<symbol id="image" viewBox="0 0 66 50">
		<g>
			<path
				d="M-1.41598e-05 48.5029V1.49692C0.361986 0.60892 1.21999 -0.00608008 2.21999 -0.00608008C2.27999 -0.00608008 2.33999 -0.00408008 2.39899 0.000919921H2.39099H63.727C63.784 -0.00408008 63.851 -0.00708008 63.918 -0.00708008C65.158 -0.00708008 66.163 0.99792 66.163 2.23792C66.163 2.30492 66.16 2.37192 66.154 2.43692L66.155 2.42892C66.155 11.9029 66.155 21.3779 66.155 30.8339C66.155 36.4749 66.155 42.1149 66.155 47.7559C66.163 47.8219 66.167 47.8989 66.167 47.9769C66.167 49.0759 65.276 49.9669 64.177 49.9669C64.147 49.9669 64.117 49.9659 64.087 49.9649H64.091H2.64499C2.54299 49.9789 2.42599 49.9879 2.30599 49.9879C1.28699 49.9879 0.407986 49.3869 0.00498584 48.5209L-0.00201416 48.5049L-1.41598e-05 48.5029ZM62.066 4.14392H4.12499V32.0919L4.76399 31.6539L15.991 23.6039C16.388 23.2059 16.936 22.9599 17.543 22.9599C18.15 22.9599 18.698 23.2059 19.095 23.6039L30.888 32.0559C32.713 33.3699 34.539 34.6849 36.364 35.9629C36.696 36.2189 37.117 36.3739 37.575 36.3739C38.476 36.3739 39.237 35.7759 39.482 34.9549L39.486 34.9409C39.537 34.7709 39.566 34.5759 39.566 34.3729C39.566 33.5999 39.141 32.9259 38.511 32.5729L38.501 32.5679C35.9577 30.7793 33.469 28.9843 31.035 27.1829L30.469 26.7629L30.798 26.5069L40.966 19.2049C41.363 18.8069 41.911 18.5609 42.518 18.5609C43.125 18.5609 43.673 18.8069 44.07 19.2049L61.412 31.6549L62.051 32.0749L62.066 4.14392Z"
				fill="#BDAE82" />
			<path
				d="M26.962 9.34597C29.987 9.34597 32.438 11.798 32.438 14.822C32.484 15.09 32.511 15.399 32.511 15.713C32.511 18.738 30.059 21.189 27.035 21.189C24.011 21.189 21.559 18.737 21.559 15.713C21.559 15.398 21.586 15.09 21.637 14.789L21.632 14.821C21.632 14.82 21.632 14.82 21.632 14.819C21.632 11.846 24.001 9.42597 26.955 9.34497H26.963L26.962 9.34597Z"
				fill="#CCBA8D" />
		</g>
	</symbol>
	<symbol id="mic" viewBox="0 0 32 50">
		<g>
			<path
				d="M4.371 50V47.102H14.587V40.93C6.391 40.113 0.038 33.272 0 24.938V24.934H2.881C2.895 29.331 5.074 33.216 8.407 35.581L8.448 35.608C10.52 37.153 13.131 38.082 15.959 38.082C16.196 38.082 16.432 38.075 16.667 38.063L16.634 38.064C23.627 37.725 29.177 32.004 29.24 24.973V24.967H32.138C32.138 25 32.138 25.039 32.138 25.078C32.138 29.228 30.531 33.003 27.905 35.815L27.913 35.806C25.306 38.656 21.696 40.55 17.645 40.926L17.582 40.931V47.021H27.831V49.968L4.371 50Z"
				fill="#CCBA8D" />
			<path
				d="M26.326 11.706V16.11H19.04V19.024H26.309V23.412H19.056V26.359H26.194C25.475 31.369 21.212 35.177 16.06 35.177C10.908 35.177 6.64496 31.369 5.93196 26.414L5.92596 26.359H13.097V23.461H5.86096V19.057H13.097V16.126H5.86096V11.755H13.097V8.792H5.95896C6.72396 3.832 10.963 0.0780029 16.078 0.0780029C21.187 0.0780029 25.422 3.823 26.187 8.718L26.194 8.776H19.039V11.707L26.326 11.706Z"
				fill="#BDAE82" />
		</g>
	</symbol>
	<symbol id="play" viewBox="0 0 130 130">
		<path
			d="M58.521 0.13572C58.0219 0.256183 55.5699 0.686409 53.0729 1.09112C6.17415 8.69809 -16.0083 65.9044 13.0263 104.367C22.0681 116.344 42.8323 129.906 43.8607 124.506C43.9895 123.832 42.7534 122.978 39.6854 121.624C27.0991 116.065 15.7097 105.112 9.49548 92.5938C-13.0744 47.1276 25.5402 -4.32319 75.965 4.02852C83.5399 5.28359 84.8555 2.66782 77.4319 1.11129C74.053 0.402757 60.344 -0.303999 58.521 0.136315V0.13572ZM58.8236 13.5427C49.9562 14.8494 38.5455 19.3896 38.5455 21.6114C38.5455 23.3352 39.8261 23.2017 44.5063 20.9901C70.1424 8.8779 101.354 22.1306 110.64 49.0716C126.075 93.8524 75.1194 131.76 36.427 104.279C14.9264 89.009 9.96843 58.679 25.4031 36.8396C29.4989 31.0443 27.3436 28.5941 23.1612 34.2915C-2.60779 69.3966 24.2964 118.982 67.7711 116.507C111.658 114.008 132.641 61.4206 102.441 29.6195C91.3694 17.9613 73.5089 11.378 58.8242 13.5415L58.8236 13.5427ZM111.588 21.4488C110.688 22.349 111.376 23.9601 114.257 27.704C135.62 55.4579 128.626 96.9429 99.2939 116.46C86.0768 125.255 74.472 127.692 52.7708 126.233C50.7271 126.096 50.3491 126.252 50.3491 127.237C50.3491 131.711 76.324 130.498 89.2029 125.422C126.968 110.539 141.858 62.4946 119.094 28.9739C114.774 22.6137 112.602 20.4352 111.588 21.4494L111.588 21.4488ZM47.2645 44.1107C46.191 45.2963 46.099 46.6867 45.9347 64.2031C45.6647 92.9997 42.7985 92.1292 77.569 73.8111C94.5145 64.8831 94.6095 65.1632 70.3056 52.4143C51.3039 42.4467 49.3949 41.7584 47.2645 44.1107ZM68.2637 55.0052C86.726 64.6481 86.8221 64.7081 85.5308 65.7798C84.0829 66.982 51.1615 84 50.285 84C49.5812 84 49.4412 80.8353 49.4412 64.9324C49.4412 51.5574 49.6388 45.8642 50.1022 45.8642C50.4654 45.8642 58.6385 49.9778 68.2643 55.0052H68.2637Z" />
	</symbol>
	<symbol id="instagram" viewBox="0 0 28 28">
		<path
			d="M15.36 0.666992C17.76 0.666992 18.267 0.693992 19.493 0.746992C20.906 0.813992 21.88 1.03999 22.72 1.37399C23.6 1.70699 24.347 2.17399 25.08 2.90699C25.827 3.63999 26.28 4.38699 26.627 5.26699C26.96 6.10699 27.174 7.07999 27.24 8.50699C27.307 9.77399 27.32 10.267 27.32 12.934V15.067C27.32 17.734 27.307 18.227 27.24 19.494C27.217 20.659 26.994 21.764 26.604 22.788L26.626 22.721C26.279 23.601 25.826 24.348 25.093 25.081C24.346 25.828 23.6 26.281 22.72 26.628C21.88 26.961 20.907 27.175 19.493 27.241C18.226 27.308 17.72 27.321 15.053 27.321H12.933C10.266 27.321 9.77296 27.308 8.49296 27.241C7.32796 27.218 6.22296 26.995 5.19896 26.605L5.26596 26.627C4.34296 26.274 3.55596 25.753 2.90696 25.094L2.90596 25.093C2.23996 24.441 1.71396 23.649 1.37396 22.764L1.35896 22.719C0.991964 21.763 0.768964 20.657 0.745964 19.502V19.492C0.692964 18.45 0.662964 17.229 0.662964 16.002C0.662964 15.776 0.663964 15.55 0.665964 15.325V15.359V12.626C0.665964 10.226 0.692964 9.71899 0.745964 8.49299C0.812964 7.07999 1.03896 6.10599 1.35896 5.26599C1.70596 4.38599 2.15896 3.63899 2.90596 2.90599C3.55096 2.23899 4.33996 1.71599 5.22296 1.38699L5.26596 1.37299C6.22096 1.00199 7.32596 0.773992 8.48096 0.746992H8.49296C9.71996 0.693992 10.226 0.666992 12.626 0.666992H15.36ZM15.387 3.06699H12.6C10.293 3.06699 9.79996 3.09399 8.59996 3.14699C7.30696 3.19999 6.59996 3.41399 6.13296 3.59999C5.50596 3.83999 5.06596 4.13299 4.59996 4.59999C4.13396 5.06699 3.83996 5.50699 3.59996 6.13299C3.42696 6.59999 3.19996 7.30599 3.14696 8.61299C3.09396 9.81299 3.06696 10.293 3.06696 12.613V15.386C3.06696 17.706 3.09396 18.186 3.14696 19.386C3.19996 20.679 3.41396 21.386 3.59996 21.853C3.83996 22.48 4.13296 22.92 4.59996 23.386C5.06696 23.852 5.50696 24.146 6.13296 24.386C6.59996 24.573 7.30596 24.786 8.61296 24.839C9.90596 24.906 10.373 24.919 13.253 24.919H14.733C17.626 24.919 18.08 24.906 19.386 24.839C20.679 24.786 21.386 24.572 21.853 24.386C22.48 24.146 22.92 23.853 23.386 23.386C23.852 22.919 24.146 22.479 24.386 21.853C24.573 21.386 24.786 20.68 24.839 19.386C24.906 18.079 24.919 17.626 24.919 14.733V13.266C24.919 10.373 24.906 9.90599 24.839 8.59899C24.786 7.30599 24.572 6.59899 24.386 6.13199C24.16 5.53099 23.819 5.01799 23.387 4.59999L23.386 4.59899C22.966 4.16599 22.454 3.82499 21.881 3.60799L21.853 3.59899C21.121 3.32299 20.275 3.15799 19.391 3.14599H19.386C18.358 3.09399 17.155 3.06399 15.944 3.06399C15.748 3.06399 15.552 3.06499 15.356 3.06599H15.386L15.387 3.06699ZM14 7.14699C17.781 7.14699 20.847 10.212 20.847 13.994C20.847 17.776 17.782 20.841 14 20.841C10.219 20.841 7.15296 17.776 7.15296 13.994C7.15296 10.212 10.218 7.14699 14 7.14699ZM14 9.54699C11.544 9.54699 9.55296 11.538 9.55296 13.994C9.55296 16.45 11.544 18.441 14 18.441C16.456 18.441 18.447 16.45 18.447 13.994C18.447 11.538 16.456 9.54699 14 9.54699ZM21.107 5.27999C21.991 5.27999 22.707 5.99599 22.707 6.87999C22.707 7.76399 21.991 8.47999 21.107 8.47999C20.223 8.47999 19.507 7.76399 19.507 6.87999C19.507 5.99599 20.223 5.27999 21.107 5.27999Z" />
	</symbol>
	<symbol id="facebook" viewBox="0 0 32 32">
		<path
			d="M13.04 29.333L13 17.666H8V12.666H13V9.33302C13 4.84002 15.787 2.66602 19.8 2.66602C21.72 2.66602 23.373 2.79902 23.853 2.86602V7.57302H21.066C18.893 7.57302 18.466 8.61302 18.466 10.133V12.666H24.666L22.999 17.666H18.466V29.333H13.039H13.04Z" />
	</symbol>
	<symbol id="twitter" viewBox="0 0 32 32">
		<path
			d="M29.333 7.83998C28.333 8.33298 27.333 8.50698 26.16 8.66698C27.333 7.99998 28.16 6.99998 28.493 5.66698C27.488 6.27498 26.317 6.73798 25.07 6.98898L25 7.00098C23.969 5.98698 22.56 5.35498 21.004 5.33398H21C18.16 5.33398 15.667 7.84098 15.667 10.841C15.667 11.334 15.667 11.668 15.84 12.001C11.262 11.823 7.22097 9.66398 4.52897 6.36198L4.50697 6.33398C4.08197 7.05998 3.83097 7.93198 3.83097 8.86298C3.83097 8.97198 3.83397 9.08098 3.84097 9.18898L3.83997 9.17398C3.87397 11.052 4.84897 12.695 6.31297 13.655L6.33397 13.668C5.49397 13.668 4.66697 13.335 3.82697 13.001C3.82697 15.668 5.66697 17.841 8.15997 18.334C7.66697 18.507 7.15997 18.507 6.66697 18.507C6.33397 18.507 5.99997 18.507 5.66697 18.334C6.33397 20.507 8.33397 22.174 10.84 22.174C9.03997 23.629 6.72397 24.509 4.20297 24.509C4.13197 24.509 4.06097 24.508 3.98997 24.507H4.00097H2.66797C5.03297 26.016 7.90397 26.936 10.984 27H11.001C21.001 27 26.508 18.667 26.508 11.493V10.826C27.655 10.036 28.601 9.03898 29.311 7.88198L29.335 7.83998H29.333Z" />
	</symbol>
	<symbol id="pinterest" viewBox="0 0 32 32">
		<path
			d="M16 2.66699C8.65699 2.69399 2.71399 8.65299 2.71399 16C2.71399 21.599 6.16599 26.393 11.057 28.368L11.146 28.4C11.013 27.347 10.919 25.733 11.186 24.573L12.746 17.946C12.746 17.946 12.346 17.146 12.346 15.973C12.346 14.12 13.426 12.746 14.773 12.746C15.906 12.746 16.466 13.599 16.466 14.613C16.466 15.76 15.733 17.466 15.346 19.053C15.026 20.386 16.013 21.466 17.333 21.466C19.706 21.466 21.52 18.973 21.52 15.373C21.52 12.173 19.227 9.95999 15.947 9.95999C15.871 9.95599 15.783 9.95399 15.694 9.95399C12.505 9.95399 9.92099 12.539 9.92099 15.727C9.92099 15.729 9.92099 15.731 9.92099 15.733C9.92099 16.88 10.361 18.106 10.908 18.773C11.015 18.906 11.028 19.026 10.988 19.16L10.615 20.667C10.562 20.907 10.415 20.974 10.175 20.854C8.49499 20.067 7.45499 17.654 7.45499 15.681C7.45499 11.481 10.522 7.62799 16.282 7.62799C20.895 7.62799 24.509 10.908 24.509 15.321C24.509 19.921 21.602 23.614 17.576 23.614C16.243 23.614 14.963 22.907 14.536 22.081L13.696 25.241C13.265 26.578 12.704 27.739 12.008 28.804L12.042 28.748C13.212 29.12 14.558 29.335 15.953 29.335C23.317 29.335 29.286 23.365 29.286 16.002C29.286 8.65499 23.344 2.69599 16.004 2.66899H16.001L16 2.66699Z" />
	</symbol>
	<symbol id="close" viewBox="0 0 50 50">
		<path
			d="M3.65211 46.6915L24.5197 25.8239M24.5197 25.8239L47.3436 3M24.5197 25.8239L46.6915 47.9957M24.5197 25.8239L3 4.30422"
			stroke="white" stroke-width="2" />
	</symbol>
	<symbol id="sun" viewBox="0 0 45 45">
		<path
			d="M22.8374 17.2125C23.9499 17.2125 25.0375 17.5424 25.9625 18.1605C26.8875 18.7786 27.6085 19.6571 28.0342 20.6849C28.46 21.7127 28.5714 22.8437 28.3543 23.9349C28.1373 25.026 27.6015 26.0283 26.8149 26.815C26.0282 27.6016 25.0259 28.1374 23.9348 28.3544C22.8436 28.5715 21.7126 28.4601 20.6848 28.0343C19.657 27.6086 18.7785 26.8876 18.1604 25.9626C17.5423 25.0376 17.2124 23.95 17.2124 22.8375C17.2143 21.3462 17.8075 19.9166 18.862 18.8621C19.9165 17.8076 21.3461 17.2144 22.8374 17.2125ZM22.8374 14.4C21.1686 14.4 19.5373 14.8949 18.1498 15.822C16.7622 16.7491 15.6808 18.0669 15.0422 19.6086C14.4036 21.1504 14.2365 22.8469 14.562 24.4836C14.8876 26.1203 15.6912 27.6237 16.8712 28.8037C18.0512 29.9837 19.5546 30.7873 21.1913 31.1129C22.828 31.4384 24.5245 31.2713 26.0663 30.6327C27.608 29.9941 28.9258 28.9127 29.8529 27.5251C30.7801 26.1376 31.2749 24.5063 31.2749 22.8375C31.2749 20.5997 30.386 18.4536 28.8036 16.8713C27.2213 15.2889 25.0752 14.4 22.8374 14.4Z" />
		<path d="M7.58521 9.58078L9.57364 7.59094L14.504 12.5212L12.5155 14.5097L7.58521 9.58078Z" />
		<path d="M2.8125 21.1008H9.84375V23.9133H2.8125V21.1008Z" />
		<path d="M7.58521 35.4333L12.5155 30.503L14.504 32.4928L9.57364 37.4217L7.58521 35.4333Z" />
		<path d="M21.0938 35.1633H23.9062V42.1945H21.0938V35.1633Z" />
		<path d="M30.4973 32.4928L32.4858 30.503L37.4161 35.4333L35.4276 37.4217L30.4973 32.4928Z" />
		<path d="M35.1562 21.1008H42.1875V23.9133H35.1562V21.1008Z" />
		<path d="M30.4973 12.5212L35.4276 7.59094L37.4161 9.58078L32.4858 14.5097L30.4973 12.5212Z" />
		<path d="M21.0938 2.81953H23.9062V9.85078H21.0938V2.81953Z" />
	</symbol>
	<symbol id="moon" viewBox="0 0 41 40">
		<path
			d="M21.4528 40C15.7066 40 10.315 37.8174 6.27098 33.8545C2.22701 29.8915 5.02421e-07 24.6074 5.02421e-07 18.9761C-0.00085731 15.0913 1.09674 11.2823 3.17098 7.97181C5.24521 4.66132 8.21494 1.97886 11.7505 0.222165C12.1143 0.0404498 12.5246 -0.032245 12.9302 0.0131555C13.3359 0.058556 13.7189 0.220041 14.0315 0.477451C14.344 0.734861 14.5723 1.07679 14.6878 1.46057C14.8033 1.84434 14.8009 2.25294 14.6809 2.63538C13.672 5.82896 13.5728 9.23201 14.3941 12.4768C15.2154 15.7216 16.9259 18.6847 19.3408 21.046C21.0739 22.757 23.136 24.1141 25.4078 25.0388C27.6796 25.9635 30.116 26.4374 32.576 26.433C34.4579 26.4345 36.3292 26.1578 38.1269 25.6125C38.5172 25.4948 38.9342 25.4924 39.3258 25.6056C39.7175 25.7188 40.0665 25.9425 40.3291 26.2488C40.5918 26.5552 40.7566 26.9306 40.8029 27.3282C40.8492 27.7257 40.775 28.1279 40.5895 28.4843C38.7969 31.9492 36.0597 34.8596 32.6817 36.8923C29.3036 38.9251 25.4169 40.0008 21.4528 40ZM11.6763 3.31431C8.93463 4.94908 6.66986 7.24958 5.10105 9.99327C3.53225 12.737 2.71252 15.831 2.72115 18.9761C2.72115 29.0982 11.1241 37.3333 21.4528 37.3333C24.6621 37.3418 27.8193 36.5384 30.619 35.001C33.4187 33.4636 35.7662 31.2441 37.4343 28.5573C35.8413 28.9186 34.2113 29.1007 32.5762 29.1C29.7587 29.1053 26.9682 28.5628 24.3661 27.5041C21.764 26.4453 19.4021 24.8913 17.417 22.9319C14.8382 20.4094 12.9578 17.2845 11.9533 13.8522C10.9489 10.4199 10.8536 6.79329 11.6763 3.31481V3.31431Z" />
	</symbol>
	<symbol id="unmute" viewBox="0 0 285.255 285.255">
		<path d="M205.917,24.039c-3.065-1.265-6.571,0.193-7.835,3.256c-1.265,3.063,0.193,6.571,3.256,7.835
		c43.688,18.036,71.917,60.231,71.917,107.497c0,64.098-52.147,116.245-116.246,116.245c-3.314,0-6,2.687-6,6s2.686,6,6,6
		c70.715,0,128.246-57.53,128.246-128.245C285.255,90.485,254.113,43.936,205.917,24.039z" />
		<path d="M157.009,225.93c45.934,0,83.304-37.37,83.304-83.303s-37.37-83.303-83.304-83.303c-3.313,0-6,2.687-6,6
		c0,3.314,2.687,6,6,6c39.317,0,71.304,31.986,71.304,71.303s-31.987,71.303-71.304,71.303c-3.313,0-6,2.686-6,6
		C151.009,223.244,153.696,225.93,157.009,225.93z" />
		<path d="M176.538,163.604c-2.424,2.258-2.559,6.055-0.3,8.479c1.182,1.269,2.784,1.911,4.392,1.911c1.464,0,2.932-0.533,4.088-1.61
		c8.231-7.667,12.952-18.513,12.952-29.757c0-22.419-18.24-40.659-40.66-40.659c-3.313,0-6,2.687-6,6s2.687,6,6,6
		c15.803,0,28.66,12.856,28.66,28.659C185.669,150.669,182.426,158.118,176.538,163.604z" />
		<path
			d="M130.79,14.84c-2.241-0.928-4.821-0.417-6.538,1.296L60.844,79.448H6c-3.313,0-6,2.687-6,6v114.358c0,3.313,2.687,6,6,6
		h57.326c3.313,0,6-2.687,6-6s-2.687-6-6-6H12V91.448h51.326c1.59,0,3.114-0.631,4.239-1.754l54.926-54.842v215.551L92.864,220.82
		c-2.346-2.341-6.145-2.339-8.485,0.007c-2.341,2.345-2.338,6.144,0.007,8.485l39.867,39.806c1.147,1.146,2.681,1.754,4.241,1.754
		c0.773,0,1.554-0.149,2.297-0.458c2.241-0.929,3.702-3.117,3.702-5.542V20.382C134.491,17.956,133.03,15.769,130.79,14.84z" />
	</symbol>
	<symbol id="mute" viewBox="0 0 294.843 294.843">
		<path d="M251.487,69.611c-2.656,1.981-3.204,5.74-1.224,8.396c15.041,20.172,22.991,44.175,22.991,69.414
		c0,64.098-52.147,116.246-116.245,116.246c-3.313,0-6,2.687-6,6c0,3.314,2.687,6,6,6c70.715,0,128.245-57.531,128.245-128.246
		c0-27.844-8.773-54.327-25.37-76.587C257.903,68.177,254.144,67.629,251.487,69.611z" />
		<path d="M157.009,31.176c22.113,0,43.62,6.231,62.197,18.02c0.997,0.633,2.109,0.935,3.209,0.935c1.986,0,3.929-0.985,5.072-2.786
		c1.775-2.798,0.946-6.505-1.852-8.281c-20.503-13.011-44.233-19.888-68.627-19.888c-3.313,0-6,2.687-6,6
		S153.696,31.176,157.009,31.176z" />
		<path d="M293.085,1.757c-2.342-2.343-6.143-2.343-8.484,0L206.147,80.21c-13.786-10.106-30.773-16.092-49.138-16.092
		c-3.313,0-6,2.687-6,6c0,3.314,2.687,6,6,6c15.051,0,29.019,4.7,40.538,12.692l-22.293,22.293c-5.491-2.77-11.687-4.34-18.245-4.34
		c-3.313,0-6,2.687-6,6s2.687,6,6,6c3.18,0,6.237,0.528,9.097,1.489l-89.315,89.315l-9.226-9.212
		c-1.125-1.123-2.649-1.754-4.239-1.754H12V96.242h51.326c1.59,0,3.114-0.631,4.239-1.754l54.926-54.842v96.776c0,3.313,2.687,6,6,6
		s6-2.687,6-6V25.176c0-2.426-1.461-4.613-3.702-5.542c-2.242-0.928-4.821-0.417-6.538,1.296L60.844,84.242H6c-3.313,0-6,2.687-6,6
		V204.6c0,3.313,2.687,6,6,6h54.844l7.462,7.451L1.758,284.6c-2.343,2.343-2.343,6.142,0,8.485c1.171,1.171,2.707,1.757,4.243,1.757
		s3.071-0.586,4.243-1.757l66.555-66.555l47.454,47.382c1.147,1.146,2.681,1.754,4.241,1.754c0.773,0,1.554-0.149,2.297-0.458
		c2.241-0.929,3.702-3.117,3.702-5.542v-74.246c0-3.313-2.687-6-6-6s-6,2.687-6,6v59.776l-37.208-37.152l91.417-91.418
		c5.517,5.227,8.968,12.613,8.968,20.794c0,15.803-12.856,28.66-28.659,28.66c-3.313,0-6,2.687-6,6s2.687,6,6,6
		c22.42,0,40.659-18.24,40.659-40.66c0-11.49-4.798-21.874-12.487-29.275l21.659-21.659c13.237,12.953,21.473,30.996,21.473,50.934
		c0,39.317-31.986,71.303-71.304,71.303c-3.313,0-6,2.686-6,6c0,3.313,2.687,6,6,6c45.934,0,83.304-37.37,83.304-83.303
		c0-23.247-9.582-44.29-24.992-59.415l77.763-77.763C295.428,7.899,295.428,4.1,293.085,1.757z" />
	</symbol>
	<symbol id="small-play" viewBox=" 0 0 294.843 294.843">
		<path d="M278.527,79.946c-10.324-20.023-25.38-37.704-43.538-51.132c-2.665-1.97-6.421-1.407-8.392,1.257s-1.407,6.421,1.257,8.392
		c16.687,12.34,30.521,28.586,40.008,46.983c9.94,19.277,14.98,40.128,14.98,61.976c0,74.671-60.75,135.421-135.421,135.421
		S12,222.093,12,147.421S72.75,12,147.421,12c3.313,0,6-2.687,6-6s-2.687-6-6-6C66.133,0,0,66.133,0,147.421
		s66.133,147.421,147.421,147.421s147.421-66.133,147.421-147.421C294.842,123.977,289.201,100.645,278.527,79.946z" />
		<path d="M109.699,78.969c-1.876,1.067-3.035,3.059-3.035,5.216v131.674c0,3.314,2.687,6,6,6s6-2.686,6-6V94.74l88.833,52.883
		l-65.324,42.087c-2.785,1.795-3.589,5.508-1.794,8.293c1.796,2.786,5.508,3.59,8.294,1.794l73.465-47.333
		c1.746-1.125,2.786-3.073,2.749-5.15c-0.037-2.077-1.145-3.987-2.93-5.05L115.733,79.029
		C113.877,77.926,111.575,77.902,109.699,78.969z" />
	</symbol>
	<symbol id="small-pause" viewBox="0 0 189.993 189.993">
		<path d="M94.997,189.993C42.615,189.993,0,147.378,0,94.997C0,42.615,42.615,0,94.997,0c52.381,0,94.996,42.615,94.996,94.997
	C189.993,147.378,147.378,189.993,94.997,189.993z M94.997,4C44.821,4,4,44.821,4,94.997s40.821,90.996,90.997,90.996
	s90.996-40.82,90.996-90.996S145.173,4,94.997,4z M94.997,182.755c-48.39,0-87.758-39.368-87.758-87.758
	c0-48.391,39.368-87.759,87.758-87.759c1.104,0,2,0.896,2,2s-0.896,2-2,2c-46.185,0-83.758,37.574-83.758,83.759
	s37.574,83.758,83.758,83.758c1.104,0,2,0.896,2,2S96.101,182.755,94.997,182.755z M94.997,171.493
	c-42.18,0-76.497-34.316-76.497-76.496C18.5,52.816,52.817,18.5,94.997,18.5c42.18,0,76.496,34.316,76.496,76.497
	C171.493,137.177,137.177,171.493,94.997,171.493z M94.997,22.5C55.022,22.5,22.5,55.022,22.5,94.997s32.522,72.496,72.497,72.496
	s72.496-32.521,72.496-72.496S134.971,22.5,94.997,22.5z M126.314,135.64h-14.663c-6.021,0-10.919-4.897-10.919-10.918V59.558
	c0-6.021,4.898-10.918,10.919-10.918h14.663c6.021,0,10.918,4.897,10.918,10.918v65.164
	C137.232,130.742,132.335,135.64,126.314,135.64z M111.651,52.64c-3.815,0-6.919,3.104-6.919,6.918v65.164
	c0,3.814,3.104,6.918,6.919,6.918h14.663c3.814,0,6.918-3.104,6.918-6.918V59.558c0-3.814-3.104-6.918-6.918-6.918H111.651z
	 M80.151,135.64H65.488c-6.021,0-10.918-4.897-10.918-10.918V59.558c0-6.021,4.898-10.918,10.918-10.918h14.664
	c6.02,0,10.918,4.897,10.918,10.918v65.164C91.069,130.742,86.171,135.64,80.151,135.64z M65.488,52.64
	c-3.815,0-6.918,3.104-6.918,6.918v65.164c0,3.814,3.104,6.918,6.918,6.918h14.664c3.814,0,6.918-3.104,6.918-6.918V59.558
	c0-3.814-3.104-6.918-6.918-6.918H65.488z" />
	</symbol>

</svg>